/* XPM */
static char *e79d9034d1a2433be201c955cf7429f4QP4Z6qDy4DvAP3Wk[] = {
/* columns rows colors chars-per-pixel */
"64 64 256 2 ",
"   c #1B1017",
".  c #241A1B",
"X  c #2A221E",
"o  c #1D1721",
"O  c #241524",
"+  c #241A25",
"@  c #281B27",
"#  c #2B1C2B",
"$  c #311B2A",
"%  c #2C1C32",
"&  c #321D33",
"*  c #2C2726",
"=  c #2B222C",
"-  c #352728",
";  c #32232E",
":  c #39312F",
">  c #2E2531",
",  c #332433",
"<  c #342A35",
"1  c #3B2B36",
"2  c #392539",
"3  c #342D3A",
"4  c #3C2C3C",
"5  c #393336",
"6  c #3D313D",
"7  c #42172A",
"8  c #4E2C2D",
"9  c #412E3E",
"0  c #4B2838",
"q  c #532A37",
"w  c #532D3C",
"e  c #42323D",
"r  c #493638",
"t  c #54333C",
"y  c #59373B",
"u  c #633B3D",
"i  c #66383E",
"p  c #55403D",
"a  c #62413E",
"s  c #362F42",
"d  c #3D2D42",
"f  c #3E3441",
"g  c #3A3946",
"h  c #373B5B",
"j  c #393C64",
"k  c #412E41",
"l  c #433243",
"z  c #493545",
"x  c #463A45",
"c  c #493A45",
"v  c #4E334F",
"b  c #4A384A",
"n  c #5A3543",
"m  c #5C3B43",
"M  c #583946",
"N  c #533B55",
"B  c #633545",
"V  c #633D44",
"C  c #6A3D44",
"Z  c #633C4B",
"A  c #6B3D4B",
"S  c #653E53",
"D  c #513D78",
"F  c #3E416B",
"G  c #4A4447",
"H  c #5C4345",
"J  c #594549",
"K  c #504C53",
"L  c #594954",
"P  c #5B535B",
"I  c #5A5559",
"U  c #644245",
"Y  c #6B4345",
"T  c #64434B",
"R  c #6B444B",
"E  c #644B4A",
"W  c #6C4B4C",
"Q  c #72444C",
"!  c #734B4D",
"~  c #794C4B",
"^  c #73524D",
"/  c #6B4552",
"(  c #664A55",
")  c #6D4C53",
"_  c #734553",
"`  c #744C53",
"'  c #784B56",
"]  c #7A4C5A",
"[  c #685556",
"{  c #64535B",
"}  c #745253",
"|  c #7A5354",
" . c #75555A",
".. c #7C545B",
"X. c #7D5A5B",
"o. c #71665C",
"O. c #5A5563",
"+. c #5D5A63",
"@. c #4B4B73",
"#. c #57467C",
"$. c #6C4E6C",
"%. c #675A65",
"&. c #755963",
"*. c #7C5A62",
"=. c #6B656A",
"-. c #796769",
";. c #76726C",
":. c #6B6675",
">. c #776C73",
",. c #7A7578",
"<. c #825154",
"1. c #845658",
"2. c #835B5C",
"3. c #896459",
"4. c #946A5C",
"5. c #845C63",
"6. c #855A65",
"7. c #915F61",
"8. c #846363",
"9. c #8A6464",
"0. c #866668",
"q. c #8B636B",
"w. c #8C6A6B",
"e. c #94696A",
"r. c #88736E",
"t. c #97726B",
"y. c #886974",
"u. c #966C74",
"i. c #887678",
"p. c #957374",
"a. c #9C7474",
"s. c #98777A",
"d. c #A16C6F",
"f. c #A5797A",
"g. c #92827D",
"h. c #A9817C",
"j. c #343D80",
"k. c #3B4387",
"l. c #4F5192",
"z. c #625A91",
"x. c #6B6A8B",
"c. c #7B7986",
"v. c #5354AF",
"b. c #5463BB",
"n. c #6A71B5",
"m. c #4F5AC2",
"M. c #5966C8",
"N. c #5A6AD2",
"B. c #6C77CA",
"V. c #6A78CA",
"C. c #867D85",
"Z. c #967D8B",
"A. c #A57C83",
"S. c #7D8391",
"D. c #7486BA",
"F. c #7986CB",
"G. c #7A84E4",
"H. c #878587",
"J. c #85848B",
"K. c #8A848B",
"L. c #8B8B8C",
"P. c #978889",
"I. c #95958B",
"U. c #8B8994",
"Y. c #968D95",
"T. c #8C9598",
"R. c #8D949A",
"E. c #939295",
"W. c #9A9394",
"Q. c #999A96",
"!. c #94949B",
"~. c #9A959B",
"^. c #959A9D",
"/. c #9B9B9C",
"(. c #A88687",
"). c #B58989",
"_. c #AB928E",
"`. c #A38D94",
"'. c #A69999",
"]. c #B79696",
"[. c #B89190",
"{. c #9CA09E",
"}. c #B0A39D",
"|. c #989AA2",
" X c #9D9CA2",
".X c #8C94BB",
"XX c #9095B7",
"oX c #A39CA3",
"OX c #A89CA5",
"+X c #B39AA3",
"@X c #9CA4A6",
"#X c #9EA4B2",
"$X c #A4A3A4",
"%X c #AAA8A6",
"&X c #A4A5AA",
"*X c #ABA4AA",
"=X c #AAABAC",
"-X c #B6A8A9",
";X c #ACB1AD",
":X c #B7B2AD",
">X c #A6A9B6",
",X c #ACADB3",
"<X c #B3ADB2",
"1X c #B9A9B2",
"2X c #ACB3B5",
"3X c #ACB9B7",
"4X c #B4B3B4",
"5X c #BBB4B5",
"6X c #B6B6B8",
"7X c #B4BBBC",
"8X c #BBBBBC",
"9X c #CA9494",
"0X c #C8999A",
"qX c #C9A19C",
"wX c #D1A299",
"eX c #CC9EA2",
"rX c #C6A8A5",
"tX c #D5A7A6",
"yX c #C6B2AD",
"uX c #D9B4AC",
"iX c #C7AEB3",
"pX c #C5B7B6",
"aX c #C3BCBC",
"sX c #D5BAB8",
"dX c #E3B6AE",
"fX c #E6B8B8",
"gX c #B8C1BE",
"hX c #CFC1BE",
"jX c #E8C3BB",
"kX c #959CC5",
"lX c #8B96D0",
"zX c #96A4CE",
"xX c #A5AECF",
"cX c #B3B8C5",
"vX c #BCBDC1",
"bX c #949EEC",
"nX c #C6BDC2",
"mX c #D4BFC1",
"MX c #EFBDC0",
"NX c #BCC3C4",
"BX c #BCC7C9",
"VX c #B6C0DE",
"CX c #B6C7EB",
"ZX c #C4C3C3",
"AX c #CCC4C3",
"SX c #C6C8C9",
"DX c #CCC9CC",
"FX c #D4C8C8",
"GX c #D5CCD1",
"HX c #CFD2D0",
"JX c #D7D4D7",
"KX c #E8CCC7",
"LX c #E4D8D6",
"PX c #EDE4DC",
"IX c #D4DAEE",
"UX c #F1ECE9",
/* pixels */
"6.1.........} } W T H m t t w w t y m R ) ) ) E U U C R ` ..5.6.6.5.| ! R C Y U V m t t t t y m T ) } ` W R R W } X.8.8.X.X.2...",
"a.q.5...5.5.X.} W m y m T / Z m n m T / ( T m y y y u Y ! | 2.5.5.2...` Q Q Q R U V m m V U T T Y R Q R A R Y R ) X.0.w.q.0.8.2.",
"(.u.6...2.2.X.} R a U ) *.q.*.` / ) ) ( ( J M y y V Y Q ! ~ ~ | | ' | ..1.1.1...` ` W `  .....` ` _ _ Q Q _ R T R ) *.8.q.q.8...",
"].A.q.5...| ` ! R Y } 9.s.A.s.5.&.&.&.%.{ ( J E ) } X.2.1.| ~ ! Q ! | 2.q.e.e.q.6.5...5.q.e.e.6.1.' ' ' ' ] _ Z m m /  .8.0.5.` ",
"].(.s.q...! Y Y ! | 9.a.A.A.s.5. .{ %.%.&.-.>.i.s.g.h.(.h.f.t.9.2.1.1.2.6.w.u.u.q.6.5.6.q.e.e.6.1.' _ ' ' ] A w 0 0 m ) ..*...! ",
"(.(.A.u.| Y u Y | e.a.f.f.a.q.*.( L { %.,.P.'.-XyXyXuXuXtXtXqX[.).a.9.} } 8.p.p.y.8.*.X.*.5.6.*.] ' ' ] ] ' B 0 7 0 m / `  ...| ",
"s.s.s.q.` u u Y 1.t.d.a.e.9.5.&.%.%.=.,.L.*X5XFXFXKXjXjXjXfXdXuXtX[.w.W E -.s.P.P.s.0.*. . . .` / ) ] &.] _ A n n M Z Z T / ` ..",
"5.5.*.` Y u C ! 2.t.t.t.9.8.w.y.i.C.K.!.&X6XZXFXFXjXfXuXuXdXdXdXuX].w.H J ;.`.-X-X'.P.r.-. .[ ( (  .*.6.6.] *.q.0.&./ n n Z ` ..",
") T Z n y u Y | 9.e.t.a.p.p.P.P.'.$X*X4X8XZXaXpXyXrXrXwXwXwXwXtXtX[.w.H J >.'.pXhXpX%XI.i.-.[ [ [ -.y.s.u.y.A.].].p.) t t V ! ..",
"m n n t t y Y | 9.w.t.h._.}.%XoX%X4XaXAXDXZX5X-X]._.[.0X0X9Xh.).9X).w.H G =.~.<X8X8X6X=X~.H.i.,.y.s.A.).[.[.rXuXrXs.` y y C W | ",
"t n m m t y U X.w.r.s.}.hXJXAX;X%X4X8XAXDXZX5X}.(.s.).eXtX).9.7.f.(.w.H c I ,.L.!.&X2XvX7X,X$X~.W.`._.0XuXfXfXtX].s.X.W Y R W ` ",
"n m m T m U } w.p.p.g.rXLXUXJX;X$X%X6XZXSXZXaX%XP.w.a.[.9Xf.1.<.e.a.8.T J I =.,.J.|.2XBXDXSXvX<X-X].].rXdXjXuX0X(.s.u.5.| ` W } ",
"m m m T } 8.s.(.(.s.g.-XLXUXJX=X{.&X6XnXZXZXhX-XP.0.2.e.t.e.9.2.9.2.| E P %.>.C.U.@X2XNXSXDXSX8X5X-X}.qXwXtX[.(.(.(.(.p.5.} ! | ",
"m n t R q.(.0XtX0Xf.p._.sXLXAX;X$X;X7X8X7XgXZX5XW.-.W Y ! 2.e.e.2.| ! [ &.>.C.Y. X=X2X7XNXSXSXvXpXyXrX].).f.t.t.f.).[.f.9.} ! ..",
"n t t R a.eXfXfXtXf.9.t._.rXpX5X6X7X7X3X3X7XNX8XQ.;.E p H } 5.9.| } } -.i.C.W.*X<X6X7X7X7XcXvX8X8XpXyX].a.X.! X.u.(.[.A.9.| ! ..",
"n w w _ A.tXMXfX0Xa.| } w.(.iXFXHXSXgX3X3X7XgX6XQ.,.o.[ ) ) W W W } -.i.P.`.OX*X<X6XNXBX7X3X3X7XZXAXaX}.s.} U W 5.a.A.s.9.| ! | ",
"n w n ..(.tXdXtX).9.W W 0._.iXGXJXSXgX3X2X7XgX3X$XI.g.g.i.-.[ E E  .r.P.`.`.Y.Y.~.&X7XBXNX3X3X7XSXDXAX:XP. .J H ) ..9.8...} | 1.",
"t n T q.).eX0Xf.3.W E -._.pXFXAXnX8X3X3X3XgXgX8X6X;X%X-X%X`.i.-.o.o.r.(.P.s.-.-.>.L.=XBXBX7X3X3XSXDXZX:XP.;.{ J V Z Y R R ` 2.9.",
"0 m  .u.(.).f.w.} W -.'.AXLXGX5X*X%X;X3X6XgXZXZXZXZXhXhXpXiX}.I.i.r.i.P.s.-.( L { ,.$XNXBX7X3X7XBXSXNX4XQ.i.=.{ J n t y V ! 9.p.",
"0 T 8.p.p.w.8.0.r.g.}.FXUXUXGXOXE.{.;X6X8X8XZXZXDXGXAX5X1X5X5X;X{.L.g.s.y.&.L L %.i.$X8XNX7X2XcXBXBXNX2X@XL.,.=.{ L J m m R 2.a.",
"m  .0.0.} Y X.h.yXKXPXUXUXUX8X~.E.$X4X8X4X6X8XAXAXaX-XP.K.~.6XhX6X$XW.P.y.-.-.i.P.oX4XNX8X7X7X7XBXBXNX2X@XE.C.,.,.i.i.&.T U ..a.",
"/ *.0.*.u 8 | [.KXPXUXUXUXJX<X~./.;XaXaX4X6XaXaXiX'.i.&.&.H.4XHXSX8X%XW.P.Z.`.OX5XnXZXZXZXNXNXNXNXvX7X2X|.E.L.K.P.`.`.y.) U } a.",
" .5.q.5.u 8 <.[.fXsXyXyXpX8X6X,X4X8XZXZXZXZXAXpX].y.) m { H.6XHXHXSX8X:X-X-XiXnXGXGXDXZXZXZXZXZXvX2X>X@X^.!.!.~.'.'.Y.-.E H ! w.",
" .*.5.2.Y i 7.).eX(.w.w.P.*XnXDXDXZX8XZXDXGXFX1XZ.&.Z T -.E.7XHXHXSXSXSXFXFXFXGXGXGXSXZXZXZXZXNX4X&X^.R.!. X&X&X$X~.C.%.H p W 9.",
" .` ` ' ! <.f.0X0Xe.C Y y.+XAXJXJXvX4X6XDXGXnX-XZ.6.&.*.C.oX7XBXBXBXBXSXGXGXGXFXAXaXaX8X6X4X4X4X%XE.J.S.R.&X4X4X&XY.,.{ H H W 2.",
") T C A <.d.0XfXdXf.~ ` i.-XGXLXDX4X$X&X8XnX5X-X+X`.P.Y.'.&X2X7X3X3X3X2X7XvXnX8X4X;X%X$X/.~.~./.E.H.,.c.R.&X6X6X*XK.=.L J E ^ | ",
"T m y C <.f.eXfXfX[.w.r.`.aXJXJXnX$XE.^.&X=X*X*X1X1X1X1X<X*X&X#X@X@X@X^.@X&X=X&X$X/./.Q.Y.L.K.L.L.H.,.,.T.&X7XvX,XK.=.L J E W | ",
"V m y C <.e.).].[.s.r.P.-XDXJXGX4X~.L.L.^. X/.oX*X<X<X1X*XOX|.^.^.^.R.T.R.@X@X/.!.E.Q.E.Y.L.L.L.H.H.,.,.L.@X6X8X,XE.=.L J H Y ^ ",
"T Y Y Q ' 1.9.w.r.r.g.'.8XJXHXvX&XE.L.J.U.!././. X XoXoXoX X!.R.R.R.R.T.R.R.!.~.~.!.~.~.~.~.Q.W.L.H.H.H.L.!.&X2X2X|.,.{ m y U } ",
"/ ' ] ' Q ! } X.r.P.'.5XZXDXNX,X XE.L.L.U.!./. X/.!.!.!.|. X|.!.!.R.!.|.^.R.!.~. X X~.~.~.~.oX$XoX~.E.L.L.L.|.>X2X X,.{ M t U } ",
" .5.6.1.Y u } p.'.pXaXZXZXvX,X&X^.E.L.U.E.!. X X~.E.E.!.~.|.|.!.!.!.|.|.|.!.!.~. X X~.Y.Y.Y.'.*X<X4X*XQ.L.J.!.&X>X|.c.{ M n m ` ",
"q.e.e.6.i u X._.FXLXJXSX8X,X&X X!.U.J.c.J.J.J.J.J.J.J.J.J.J.J.J.J.J.U.U.J.J.C.K.U.U.K.C.,.,.K.OX<X8X6X$XE.L.E.|. X!.c.%.M n m ) ",
"f.a.u.6.i y 3.].KXPXJX8X&X X X$X~.J.:.+.+.I I I I +.+.+.+.+.+.+.+.+.+.+.+.P O.%.%.%.%.P K G { ,.'.<X8X4X$XE.U.R.R.U.c.%.M t m / ",
"(.A.a.6.u u 8.].FXHXZX2X X!. XoXE.>.K f < = = > < < 3 3 3 3 3 3 3 3 < , , , 2 4 l l l 2 # # 2 L >.~.<X8X4X/.R.L.L.J.,.%.m t y R ",
"[.A.a.5.C u 8.'.aXZX4X&X^.E.Y.U.,.I g = o   o + @ + @ = = + + + @ @ + O O O # # # # & # O   O , K >.~.;X4X%X@X!.L.C.,.[ m q y W ",
"(.A.u.1.C U 0.'.pX5X&X@X^.E.C.:.K g < @ + + @ = > > > > > = @ # # # # # $ , , # @ # , 2 & O   o , K >.Y.$X=X=X@XE.J.>.[ y 8 y ^ ",
"u.q.6.' C U 0._.:X:X$X@X@XR.:.K < = > < < 4 6 f g f f f 6 6 4 4 4 6 e l l l l 4 & , k b z 4 # O @ 3 K >.W.<X3X=X/.L.,.[ r 8 y | ",
"..] ] Q C C 8.`.-X;X%X=X&XE.%.6 + + > 6 l l x x x x f 6 l l x x l l l l c b b l 2 4 b v N b 4 # O O 6 %.E.8XNX2XQ.L.i.[ r 8 a X.",
"Z Z A A i Y 8.`.:X4X=X2X,XE.%.2 O @ < l l x x l 6 3 < 4 l l l l l l 9 4 4 l b z k 9 k z b b l 2 # O , P W.SXDX4X^.L.,.{ y q U X.",
"n n B A i Y 0._.pX5X2X4X,X!.%.4 # # 2 l l l l f 4 < < 4 e l l l l l 4 2 2 9 l l z k 9 k z z z 9 , # < P ~.DXJX7X|.L.,.{ c t V ..",
"n n B B i Y w.].pX8X;X2X2X~.=.l ; , 4 l l l l 6 4 4 4 4 e l l l l l 4 2 2 4 l z z k 4 2 9 k l 9 1 ; 1 P ~.DXJXvX XL.>.L M t C ..",
"n n n B C ! p.'.:X5X=X2X,X~.:.c 1 , 4 e l e 9 l l 9 9 l l l l 9 9 9 4 4 4 4 9 l l l 4 1 1 4 9 4 1 ; 1 P ~.DXJXZX&XJ.>.P M n A ..",
"Z Z Z A Q | 8.i.P.'.%X4X4X~.>.b 1 , 2 4 4 4 9 l l l l l l 9 4 4 4 l l l 9 4 9 l l l l 9 9 9 4 1 , # 1 P ~.DXJXZX&XJ.>.P M M / ] ",
"Z Z A _ ..5.) J [ H.%X8X4X~.=.l $ # , 2 4 4 4 l l l l l 9 4 4 4 9 l l l l 4 9 9 9 l l z z l 9 1 ; @ < P ~.DXJXvX XK.>.{ J Z _ ] ",
"Z Z A _ 5.6.H : r ;.%XZX6XE.%.l # ; < 2 4 4 d k l l l l k 4 4 4 e l l l l l k 9 4 4 9 l z z e 1 ; @ < P ~.DXJX6XY.C.>.{ m Z _ 6.",
"n Z A _ 5.*.m - - =.&XSX8X!.=.l ; , 1 4 9 l k k l l l l k 4 4 4 4 4 4 4 l l z l 4 4 4 9 z z l 1 = = 3 P /.DXGX<XL.i.>.[ m y Q 6.",
"n Z / _ ] ` m r p ;.%XZX8X~.=.l , , < 9 l l k k l l l l l 9 4 4 4 4 2 2 4 l b z k 4 2 4 l l l 2 ; = 3 +. XDXDX=XL.H.i. .u y Y 7.",
"n S ] ] ` U U [ ;.E.=X7X6X~.:.l , , 2 4 9 k d k l l l l l k 4 4 4 4 4 2 4 l z z k 4 4 4 4 k 9 2 , = < P  XDXZX*XW.'.'.s.| Y ~ 9.",
"M ) q.6./ t E i.'.:X4X2X,X!.:.x > , 4 4 9 l l l l k 4 l f f 4 d l l l 4 4 l l k k k k k k k 4 2 , # < I ^.DXZX%X'.yXhXrXa.1.~ 3.",
"M  .y.y.A q  ._.mXAX6X2X>X!.=.l > = 2 k l 9 9 9 4 4 2 4 f f 4 d f l l l d 4 k l l l 9 k k k d 2 , # 3 O.!.DXAX-X-XsXKXuX(.3.<.e.",
"/ &.y.6.Z w *.+XFXFX8X3X2XR.=.f = > 2 6 e e l 9 2 2 2 6 l f 4 4 d l x l l d 9 e e e 9 9 k k d 2 & # 3 +./.DXAXyX-XsXjXrXh.3.1.e.",
") *.0.*.n n &.`.pXAXhX8X2X!.=.f > , 4 6 6 l l e 4 2 4 l l 6 4 4 f l l l x l 9 e e e 9 4 l l d 2 & % 3 +./.AXAXyX].qXqX_.t.3.3.t.",
"X.8.9.| B n S -.`.1XaXSX7X!.=.l , , 4 l k l l l k d l b l 6 1 1 6 l l l l l e e c e e e l l d 2 % = s +./.AXhXrX).h.h.a.4.3.3.e.",
"2.3.3.| A q 0 w &.P.5XAX8X~.=.c ; ; 2 1 1 9 e l c c c c l 6 1 6 x c x l l f l l c c c c c l 4 , @ = 6 %.oXFXsX[.e.3.4.4.4.4.4.1.",
"| | 1.<._ w 7 $ t -.'.aX8X'.>.J ; $ 2 4 9 e 4 4 4 e 1 1 < , , < 4 6 4 2 2 2 2 2 1 4 l c z e 1 ; @ * 5 =.*XLXsXh.~ ~ 1.4.t.4.1.~ ",
"a U ! ..' Z w 0 r { C.*X4X*Xi.N & & 2 l b l 4 , # = # @ @ @ @ # # # # # # # # @ @ % 4 l l 1 - * * X : =.<XLXsXp.Y Y 3.e.e.3.| Y ",
"8 y U ` ' / m M b N %.U.*X*XC.N & % 2 l b x 3 % # # # @ # # = # + . + @ # # @ O # % 2 4 2 ; * X * . * { 6XPXmXy.m V 2.9.5...R C ",
"q t B / / S m N M l G >.~.$Xi.c @ O # 4 e 6 = = < 6 x x x G G e 5 : 5 r r r e e l k 2 & & ; * X .   * I 5XUXmXy.t 0 W | ` A C C ",
"Y Q R Y B n t t 0 1 r [ H.I.>.r . . + * : * * 5 G =.i.,.,.,.;.=.o.o.o.;.;.o.-.-.>.%.b , 2 9 1 -     X [ %XJX5X-.0 0 t t y B A A ",
"<.1.' / Z n z 0 0 9 r { ;.,.I : . X > 5 G G G I ;.E.$X$X{.Q.~.Q.I.I.I.I.I.I.W.'.OXK.%.b L O.L e .   * K L.<X'.-.z 2 k 0 z n A _ ",
"q.q.5.&.$.N v v N K P %.%.%.G < > s K :.c.S.c.c.R. X>X>X#X#X>X>X>X#X#X>X&X&X&X,X<XoXU.c.C.R.C.:.G s 3 g O.x.x.$.N v v v v S ) &.",
"s.s.i.y.z.#.D D #.:.c.c.:.O.K g h @.x.XXxXxXkX.X.X.X.X.X.X.XkXzXkXkXkXkXkXXX#XxXcXcXxXxXxXxXkXXXx.@.j h j F @.#.#.#.#.D #.$.$.y.",
"Y.W.Y.U.n.v.l.l.z..XXXXXS.x.l.l.l.z.n.lXbXbXbXlXlXF.V.n.n.V.F.F.F.F.V.V.V.F.lXxXVXCXcXxXxXzXzXlXn.z.l.l.k.j.k.l.v.v.v.v.l.z.x.U.",
"&X=X>XXXB.m.v.v.M.lXCXCXxXkXF.F.n.n.V.B.bXbXG.B.N.N.M.m.m.M.N.N.N.M.m.m.b.b.V.bXCXIXCXxXlXD.D.n.V.V.B.V.M.b.b.b.M.M.N.m.v.b.n.kX"
};
