/* XPM */
static char *_0713bffbc584418f4e3a8bfb7744c992UmvlXdGJc5hmKwE[] = {
/* columns rows colors chars-per-pixel */
"64 64 247 2 ",
"   c None",
".  c #211717",
"X  c #272419",
"o  c #332C1E",
"O  c #32321E",
"+  c #2C1C25",
"@  c #2A1E29",
"#  c #311E27",
"$  c #2C2624",
"%  c #342D24",
"&  c #32262A",
"*  c #373428",
"=  c #242739",
"-  c #382A34",
";  c #29353D",
":  c #3A3836",
">  c #2F3022",
",  c #1F2639",
"<  c #412B38",
"1  c #44363C",
"2  c #483831",
"3  c #364337",
"4  c #494839",
"5  c #554D38",
"6  c #1A3755",
"7  c #1D2E4C",
"8  c #253448",
"9  c #363648",
"0  c #283A57",
"q  c #3A3C57",
"w  c #262B47",
"e  c #483844",
"r  c #523B46",
"t  c #473D57",
"y  c #3A4749",
"u  c #2E4454",
"i  c #3B445A",
"p  c #384757",
"a  c #28494F",
"s  c #3A4964",
"d  c #395269",
"f  c #2C4C6D",
"g  c #3C6279",
"h  c #54494B",
"j  c #5A5447",
"k  c #454359",
"l  c #594854",
"z  c #575556",
"x  c #4B5251",
"c  c #614A56",
"v  c #65565B",
"b  c #62594B",
"n  c #696555",
"m  c #746A5A",
"M  c #77765B",
"N  c #6A6C52",
"B  c #494A66",
"V  c #595469",
"C  c #475775",
"Z  c #565975",
"A  c #4A5268",
"S  c #6C5968",
"D  c #4C637A",
"F  c #4F6671",
"G  c #686668",
"H  c #776767",
"J  c #7D7768",
"K  c #65697C",
"L  c #786B75",
"P  c #7A7777",
"I  c #6A726C",
"U  c #526458",
"Y  c #856979",
"T  c #867D78",
"R  c #847968",
"E  c #7E8075",
"W  c #86847A",
"Q  c #978A7B",
"!  c #97947B",
"~  c #8A866E",
"^  c #BCA57E",
"/  c #BBA879",
"(  c #C0A67F",
")  c #365F85",
"_  c #3E6582",
"`  c #576884",
"'  c #59758A",
"]  c #5B7A94",
"[  c #466685",
"{  c #636886",
"}  c #67788B",
"|  c #677895",
" . c #787693",
".. c #636C91",
"X. c #877986",
"o. c #957886",
"O. c #8C758F",
"+. c #AB7D95",
"@. c #B47F9A",
"#. c #B67C97",
"$. c #B07E8C",
"%. c #678399",
"&. c #5983A8",
"*. c #6589A7",
"=. c #7894AC",
"-. c #6B93B7",
";. c #7191AF",
":. c #76A3BB",
">. c #5F819A",
",. c #749CC4",
"<. c #6C9CC2",
"1. c #77A6C9",
"2. c #6DAAD6",
"3. c #6CA6D4",
"4. c #75AAD6",
"5. c #69A5CB",
"6. c #959494",
"7. c #958A8E",
"8. c #AC8787",
"9. c #B3878A",
"0. c #A89A8A",
"q. c #B9988B",
"w. c #A58293",
"e. c #A88499",
"r. c #B68499",
"t. c #BA9994",
"y. c #AA919B",
"u. c #ACA689",
"i. c #BBA584",
"p. c #BCAA84",
"a. c #B5A68B",
"s. c #BAA68A",
"d. c #BCAA8C",
"f. c #B5A586",
"g. c #BCAB92",
"h. c #B6A894",
"j. c #BCB599",
"k. c #A7A49B",
"l. c #8686A7",
"z. c #878DB8",
"x. c #908DB6",
"c. c #8795B7",
"v. c #8F94B2",
"b. c #AD94A5",
"n. c #BA95A9",
"m. c #B393A9",
"M. c #B4ABAF",
"N. c #9DA1BA",
"B. c #C29D95",
"V. c #C59E8F",
"C. c #C2AA84",
"Z. c #C3AA8A",
"A. c #C2A68A",
"S. c #C9B886",
"D. c #C6A894",
"F. c #CAB794",
"G. c #D2BD92",
"H. c #C595AB",
"J. c #CB92B1",
"K. c #CC91AB",
"L. c #D5BAB9",
"P. c #C8ACB0",
"I. c #E4B8BA",
"U. c #E1A6B8",
"Y. c #BCC1AB",
"T. c #D2C69A",
"R. c #E0D19B",
"E. c #D5C8A9",
"W. c #D5D3B2",
"Q. c #E9C7BA",
"!. c #F1CDBC",
"~. c #E8D8B9",
"^. c #F5DBBC",
"/. c #E3C8AB",
"(. c #F6ECAD",
"). c #F6EDA8",
"_. c #FAF2AC",
"`. c #F4F3A8",
"'. c #EAE8BE",
"]. c #FCEDB4",
"[. c #FDECBB",
"{. c #F7E9B7",
"}. c #F5F3B3",
"|. c #FBF2B5",
" X c #F6F2BB",
".X c #FBF2BC",
"XX c #FCFCBE",
"oX c #EFF1A4",
"OX c #DBE1B5",
"+X c #8B94C7",
"@X c #9599C7",
"#X c #848CC3",
"$X c #86A6C4",
"%X c #9CA6C8",
"&X c #A5ABD2",
"*X c #D8B7C8",
"=X c #D9B8D4",
"-X c #D1AFC5",
";X c #E6ADC9",
":X c #E4B3C4",
">X c #E5B4CC",
",X c #EBB4CC",
"<X c #E4BBCD",
"1X c #EABDCD",
"2X c #E7BBC5",
"3X c #EBB3D2",
"4X c #E5BCD3",
"5X c #ECBCD4",
"6X c #EDBDDA",
"7X c #E6B6D6",
"8X c #F1BCD5",
"9X c #F2BDD9",
"0X c #F0B5D2",
"qX c #F2BFE0",
"wX c #D8C7CA",
"eX c #EBC3C4",
"rX c #EAC3CC",
"tX c #E7C7C6",
"yX c #F2CFCA",
"uX c #EBD3C5",
"iX c #F4D4C4",
"pX c #F7D9C8",
"aX c #E5C2D4",
"sX c #EBC2D5",
"dX c #ECC2DA",
"fX c #EBC9DA",
"gX c #E8C7D7",
"hX c #F1C1D6",
"jX c #F2C2DB",
"kX c #F0CBDD",
"lX c #F7D9D4",
"zX c #FDE3C4",
"xX c #FEEDC3",
"cX c #FCE4CB",
"vX c #FEEDCA",
"bX c #F4EAC7",
"nX c #FDF2C3",
"mX c #F8F3C8",
"MX c #F4EACE",
"NX c #F7D9E7",
"BX c #ECCAE0",
"VX c #FDE6E8",
"CX c #FCF5E7",
"ZX c #FEEDF4",
"AX c #FDE8F4",
"SX c #FDF3F3",
"DX c #FDF3F8",
/* pixels */
"                                                                                                                                ",
"                                                                                                                                ",
"                                                                                                                                ",
"                                                                                                                                ",
"                                                                                                                                ",
"                                                                                                                                ",
"                                                                                                                                ",
"                                                                                                                                ",
"                                                                                                                                ",
"                                                    L h 1 & + + + & e z X.                                                      ",
"                                              v + # < l S Y Y o.o.H c h - . - v                                                 ",
"                                          : & r X.b.-X<X4XaXsXdX=XgXaX*XP.b.L 1 & 1                                             ",
"                                      : + v b.aXgXfXdX<X>X5X5X5XaXaXaXaXaXgXaX*Xw.l # 1                                         ",
"                                  l . v n.aXgX<X5X1X1X5XjXjX5X5X5X5X5X5X5X5XsXaXgX*Xb.r $ G                                     ",
"                                1 e o.aXgX>X5XhX5X5X8XjX6X4X5XjX5X9X8X8X8X8X8X5X<XaXgX-XL + 1                                   ",
"                              & h n.fX<X4XsX5X5X5X9X8X8X6XdX6X5X9X8X8X8X9X9X8X5X5XsX<XgXaXy.1 +                                 ",
"                            * b L.*XtXfXgXaXdX4X6X9X9X9X9X5X5XjX5X5X1X1X8X9X9X6X5XhX5X<X4X<Xm.r +                               ",
"                          $ n W.uXlXNXAXAXAXNXgX4X6X6X9X9X8X5X5X1X2XeXeX2X1X5X5X5X5X1XhX9X5X>Xn.1 #                             ",
"                        : j E.MXVXZXSXDXDXDXAXNXaX5X5X5X9X5X5X1XyXyXiXpXpXyXrXrX<XsX1X5X7X>X5X*Xw.< :                           ",
"                      h * W.mXbXCXSXSXSXZXZXDXAXaXaX5X5X8X5X5XrXlXcXvXvXvXzXpXpXtXrX1X5X6X7X,X:X*Xo.+ h                         ",
"                      X u.mX(.nXCXSXSXSXSXZXDXAXgXaXsX5X5X1XsXyXvXxX.X.X.XnXxXxXzXiX2X5XqX3X,X,X-Xn.c &                         ",
"                    > N  X|.|..XCXSXCXSXSXDXDXAXaXaX5X5X5X1XsXlXxX|. X X X X|..XnXzXyXrX5X3X3X,X,XH.e.1 -                       ",
"                  G * W.}.(..XnXCXSXSXSXSXDXZXNXaX5X5X5XsX1XsXyX[.|..X X X X}.`.(..XcXyX5X8X3X3X,XU.w.H + L                     ",
"                  * M mX|.|.[.vXVXZXSXSXZXZXVXgX5X5X5XhXhX1X<XtXxX].[..X.X X}.}.`.|.xXpXeX:X;X3X;X;Xr.w.r @                     ",
"                T > E. X.X[.cXlXtXNXAXZXZXNXgX4X5X8X9X8X8X8XsX2X!.zXxXxX]. X X X|..X].xXpXI.:X3X,X;XH.+.Y # T                   ",
"                : N '. X].xXlXrX<XsXfXkXfXaX4XjX5X5X8X9X8X5X5X1XeXiXcXvXnX.X.X X.X|.|.].[.!.I.,X3X;XJ.e.o.< l                   ",
"                X u. X.XxXzXsX4X5XhXsX5XaXdXdX7X6XjX9X3X8X9X5X5X1XrXyXcXvXnX.X X.X].|.].[.zXQ.:X,X;XJ.r.+.c -                   ",
"              T O W.{..XvXiX<X6X9X5X5XdX5X4X6XBX6XjX9X8X8X8X5X5X5X5XrXyXzXxX[..X.X.X|.].].[.Q.I.,X;XJ.r.e.Y @                   ",
"              z 5 '.nXxXzXeX5XqX9X5X5X5XaXgXaX=X5X4X5XjXjX8X5XjX8X5X5XrXyXcXxX.X|..X{.{.].[.^./.:X3XJ.@.+.o.- L                 ",
"              : M bXnXxXuXI.6X6X5X5X5X4XgXBXBXfXgXdXdX5X>X5X5X5X5XhX6X4XtXpXxX|.].|.(.].].].[.Q.:X3XJ.@.+.w.e h                 ",
"              % ~ mXbXzXtX2X5X6X5XsXaX*XM.w.o.e.P.-X4XjX5XjXjX1X1XsX6X4XrXuXzX].|._._._._.].[.iX:X;XK.@.@.e.l e                 ",
"              * M MXvX^.Q.rXjX5XdX=X7.k 9 B A k 9 t X.*XaX<X5XhX1X5X6X5X<XtXpXxX.X)._._.).|.{.pX:X;XK.#.@.w.c 1                 ",
"              z * j.cX!.tXrX6XdX-XK 0 ] ,.1.$Xc.=.%.d i m.4X5X6X5XdXdX4X1XeX!.zX[.(._._._.(.].zXI.U.#.#.#.w.h h                 ",
"              y : : h.uXL.wXgX=XV i $X1.&.) f f _ *.:.' w b.jX5X5X4X5XjXjX2XQ.pX[.].`.).).|.|.^.I.U.r.+.+.Y & P                 ",
"              8 A } y G M.fX4XO.i $X*.f 0 C | | C 0 d c.| w M.<XsX1X5X,X,X:XI.iXxX|.`.`.oX`.}.xXeXH.+.e.X.- & 6.                ",
"              = d c.;.d 9 L b.t *.-.6 D l.l.l.v.&X%XZ 7 =.' t =X1X8X9X0X0X,XI.!.[.(.`.`.`.oX}.xXwXm.O.V = V ; G                 ",
"              ; 8 ;.$X:.*.` 7 f 1.f C { q Z A q A v.%X` f c.k O.5X3X3X3X3X;XI.!.xX|.`.oX}.XX X~.6.k 8 i } K ; z                 ",
"              : 9 u %.:.:.1.,.-.&.6 { B l.x.&X%X` B z.c.8 } %.q =X7X7X7X7X4X2XuXMXbXOXW.j.! m x 9 d ` ' | Z = G                 ",
"              h j 7.3 F :.5.3.4.g u q l.x.x.@Xz.&X` Z N.Z s =.0 6.m.n.b.e.7.X.P I U p a u d ` | ' >.] | ` = @ X.                ",
"              H 2 W.Y.U a [ <.,.p p A x.@X+X#X+X+Xz.B l.K 0 -.) 0 i i q i s d C D ' *.-.,.1.,.*.] ' ` s 9 V &                   ",
"              k.X u.mXMXk.z 0 ' p 9 { x.z.@X+X+X+X=.q X.K 8 1.5.3.4.4.4.4.4.4.4.2.4.2.5.5.1.-.] F q 9 l O.S -                   ",
"                X N ~.vX~.L.P k V = B v.+X+X#X+X+X .t  .Z s <.2.2.2.2.2.2.2.2.3.3.1.1.:.*.F a ; 9 S Y e.e.e h                   ",
"                G * g.^.^.Q.P.< K = 9 l.@X+X@Xz.z.{ s =.q C 1.<.-.-.-.-.*.>.' ' F x y 3 3 4 N ~ 8.r.w.w.Y + 6.                  ",
"                  $ m E.zXQ.I.S Z i = i l.x.z.@Xl.w | | 6 ;.*.6 q q q p p x U I E 0.j.T.F.p.p.Z.V.9.9.o.c 1                     ",
"                  h 2 a.E.uXtXn.9 K 8 8 q Z  .Z q Z { 0 [ $Xd K =X=X-XP.L.wXbXMXmXmX~.G.p.f.p.d.D.q.t.T $                       ",
"                    > N u.F.!.Q.X.9 } p , 9 s C ` C 0 [ $X| 9 M.7X3X:XI.!.zXxX{.{.R.S.p.p.d.d.d.i.g.h.h :                       ",
"                    n O ! d.F./.L.Y e K ` d 8 0 f g &.:.| 9 y.<X7X>XI.Q.^.[.[.(.R.S.^ i.s.s.s.s.p.u.J %                         ",
"                      > 4 a.f.Z.P.P.7.9 A } =.c.c.c.*.C 9 e.<X:X:XL.Q.pXxX{.R.S./ / p.p.s.i.i.s.g.! O j                         ",
"                        * j h.h.D.V.B.y.L t t t t q t X.P.>X;X:XL.Q.pX^./.G.C./ / C.C.C.i.Z.i.d.0.4 :                           ",
"                        W X m h.D.q.V.t.t.n.e.e.+.n.-X>X<X:X:XI.Q.E.E.F.Z.p.^ ^ C.^ p.^ p.p.f.u.h *                             ",
"                          J X n a.Z.s.q.8.8.r.m.n.H.n.n.n.H.B.B.D.A.C.i.^ ^ C.C.C.p.i.d.d.d.a.5 o                               ",
"                            P X b u.g.g.g.q.8.$.+.@.r.e.8.9.q.D.Z.C.C.C.C.^ ^ p.f.i.d.d.a.! 4 o                                 ",
"                              W X 4 ! a.g.D.q.8.$.$.$.9.t.D.C./ ( ( ^ C.C.C.p.i.d.f.g.g.R * %                                   ",
"                                  : % m 0.a.D.t.9.8.8.q.q.A.C./ ^ C.C.C.i.i.s.d.f.j.Q j o 4                                     ",
"                                    n . 2 H 0.D.q.8.q.D.Z.i.^ ^ ^ s.s.i.i.d.g.h.0.n % > W                                       ",
"                                        z & * b T Q h.g.s.s.d.f.d.d.a.a.g.0.R j o % H                                           ",
"                                          M.G % X % 5 m R T Q 7.Q ~ J n 4 o o : J                                               ",
"                                                M.E 4 > X $ $ $ X X X * j T M.                                                  ",
"                                                        wXk.6.7.6.M.wX                                                          ",
"                                                                                                                                ",
"                                                                                                                                ",
"                                                                                                                                ",
"                                                                                                                                ",
"                                                                                                                                "
};
