/* XPM */
static char * heeal_ball_xpm[] = {
"64 64 435 2",
"  	c #4B63BC",
". 	c #5E78CB",
"+ 	c #7C94E3",
"@ 	c #7791DA",
"# 	c #697ECC",
"$ 	c #647CD3",
"% 	c #5C73D3",
"& 	c #4C63C4",
"* 	c #4D63D3",
"= 	c #556ADA",
"- 	c #5166D4",
"; 	c #4661C3",
"> 	c #536AC5",
", 	c #596EC5",
"' 	c #738CD3",
") 	c #7D9AD3",
"! 	c #6C89C5",
"~ 	c #6681CC",
"{ 	c #546BCC",
"] 	c #4D63CB",
"^ 	c #4761CD",
"/ 	c #495ECC",
"( 	c #455BC4",
"_ 	c #5C74C4",
": 	c #748DDB",
"< 	c #849DE9",
"[ 	c #7286D4",
"} 	c #6175C4",
"| 	c #596ECC",
"1 	c #4E63DA",
"2 	c #4F69D2",
"3 	c #4A5ED3",
"4 	c #5166C5",
"5 	c #7B8FEB",
"6 	c #87A0E8",
"7 	c #6A84C5",
"8 	c #5770D4",
"9 	c #5166CD",
"0 	c #4E69C5",
"a 	c #596ED4",
"b 	c #4256C3",
"c 	c #445BBC",
"d 	c #495DBD",
"e 	c #3D53C9",
"f 	c #465AD2",
"g 	c #829BDC",
"h 	c #7B94D4",
"i 	c #6074CB",
"j 	c #657CDA",
"k 	c #546AD4",
"l 	c #4255B5",
"m 	c #7E9BDB",
"n 	c #4356D1",
"o 	c #465CCA",
"p 	c #8BA4EB",
"q 	c #7A8ED4",
"r 	c #697ED4",
"s 	c #3D54C3",
"t 	c #6B84CC",
"u 	c #6781D2",
"v 	c #5F79D3",
"w 	c #3D54B4",
"x 	c #566AE2",
"y 	c #495EC4",
"z 	c #93ACE4",
"A 	c #8BA5E3",
"B 	c #637CC4",
"C 	c #5C72DB",
"D 	c #829BE2",
"E 	c #95B1EA",
"F 	c #5E79C4",
"G 	c #4F69CC",
"H 	c #445CB5",
"I 	c #526BBD",
"J 	c #93ADEB",
"K 	c #8AA3DC",
"L 	c #5770CB",
"M 	c #596EDB",
"N 	c #9AB5EC",
"O 	c #A3BDF3",
"P 	c #9BB4E4",
"Q 	c #4759DA",
"R 	c #94ACF2",
"S 	c #7A94CC",
"T 	c #5A76B4",
"U 	c #5C74CC",
"V 	c #AAC5F3",
"W 	c #95B2DB",
"X 	c #6581BC",
"Y 	c #5B73BC",
"Z 	c #637CCC",
"` 	c #ADCCF9",
" .	c #86A3DB",
"..	c #6376D8",
"+.	c #99B5F2",
"@.	c #86A3D4",
"#.	c #5A6EE1",
"$.	c #8297E4",
"%.	c #A9C5FA",
"&.	c #A3BDE6",
"*.	c #728CC4",
"=.	c #627ABD",
"-.	c #4760BC",
";.	c #4156BC",
">.	c #A4C1E4",
",.	c #8AA4D2",
"'.	c #6A84BD",
").	c #6276BD",
"!.	c #6B83D3",
"~.	c #9CBBE5",
"{.	c #718EBD",
"].	c #617CB7",
"^.	c #ACCAF3",
"/.	c #AAC9EE",
"(.	c #8297DC",
"_.	c #BAD4F8",
":.	c #798BDC",
"<.	c #697EDB",
"[.	c #7691D4",
"}.	c #B2CDF5",
"|.	c #92ACDC",
"1.	c #5266DA",
"2.	c #5770C4",
"3.	c #B4D1F9",
"4.	c #6E89D4",
"5.	c #819DD3",
"6.	c #A4C2EC",
"7.	c #A5C0FA",
"8.	c #9CB5FA",
"9.	c #728CCC",
"0.	c #6C83DB",
"a.	c #3E54AD",
"b.	c #4F6ABB",
"c.	c #9DBAEA",
"d.	c #9EBAF4",
"e.	c #4B63B5",
"f.	c #6D89CC",
"g.	c #546CB4",
"h.	c #5166BD",
"i.	c #8096E9",
"j.	c #758CE2",
"k.	c #7E9AE2",
"l.	c #7286DB",
"m.	c #6176D3",
"n.	c #4456CB",
"o.	c #4C5FDA",
"p.	c #786B75",
"q.	c #54494B",
"r.	c #44363C",
"s.	c #32262A",
"t.	c #2C1C25",
"u.	c #483844",
"v.	c #575556",
"w.	c #877986",
"x.	c #889EDD",
"y.	c #5F7BB7",
"z.	c #65565B",
"A.	c #311E27",
"B.	c #412B38",
"C.	c #594854",
"D.	c #6C5968",
"E.	c #856979",
"F.	c #957886",
"G.	c #776767",
"H.	c #614A56",
"I.	c #382A34",
"J.	c #211717",
"K.	c #7491C6",
"L.	c #A1B7F5",
"M.	c #3A3836",
"N.	c #523B46",
"O.	c #AD94A5",
"P.	c #D1AFC5",
"Q.	c #E4BBCD",
"R.	c #E5BCD3",
"S.	c #E5C2D4",
"T.	c #EBC2D5",
"U.	c #ECC2DA",
"V.	c #D9B8D4",
"W.	c #E8C7D7",
"X.	c #D8B7C8",
"Y.	c #C8ACB0",
"Z.	c #6681C4",
"`.	c #7D9ACD",
" +	c #687DBE",
".+	c #819DC9",
"++	c #EBC9DA",
"@+	c #E5B4CC",
"#+	c #ECBCD4",
"$+	c #A58293",
"%+	c #A6C8EA",
"&+	c #9EBADE",
"*+	c #AAC5ED",
"=+	c #95B1E4",
"-+	c #8EAAE3",
";+	c #BA95A9",
">+	c #EABDCD",
",+	c #F2C2DB",
"'+	c #2C2624",
")+	c #686668",
"!+	c #B3D2F3",
"~+	c #A8C2E7",
"{+	c #889FE2",
"]+	c #8EA9EA",
"^+	c #7B94DB",
"/+	c #F1C1D6",
"(+	c #F1BCD5",
"_+	c #EDBDDA",
":+	c #F2BDD9",
"<+	c #86A1E2",
"[+	c #A2BBFA",
"}+	c #7187E5",
"|+	c #AA919B",
"1+	c #6D84E2",
"2+	c #373428",
"3+	c #62594B",
"4+	c #D5BAB9",
"5+	c #E7C7C6",
"6+	c #B393A9",
"7+	c #6E89D9",
"8+	c #696555",
"9+	c #D5D3B2",
"0+	c #EBD3C5",
"a+	c #F7D9D4",
"b+	c #F7D9E7",
"c+	c #FDE8F4",
"d+	c #E7BBC5",
"e+	c #EBC3C4",
"f+	c #5A5447",
"g+	c #D5C8A9",
"h+	c #F4EACE",
"i+	c #FDE6E8",
"j+	c #FEEDF4",
"k+	c #FDF3F3",
"l+	c #FDF3F8",
"m+	c #F2CFCA",
"n+	c #F4D4C4",
"o+	c #F7D9C8",
"p+	c #EAC3CC",
"q+	c #E6B6D6",
"r+	c #F8F3C8",
"s+	c #F4EAC7",
"t+	c #FCF5E7",
"u+	c #FCE4CB",
"v+	c #FEEDCA",
"w+	c #FDE3C4",
"x+	c #EBB4CC",
"y+	c #E4B3C4",
"z+	c #8DAAD5",
"A+	c #6482B5",
"B+	c #5F7ABB",
"C+	c #272419",
"D+	c #ACA689",
"E+	c #F6ECAD",
"F+	c #FDF2C3",
"G+	c #FEEDC3",
"H+	c #FBF2BC",
"I+	c #F2BFE0",
"J+	c #EBB3D2",
"K+	c #7C9BC6",
"L+	c #2F3022",
"M+	c #6A6C52",
"N+	c #F6F2BB",
"O+	c #FBF2B5",
"P+	c #C595AB",
"Q+	c #A88499",
"R+	c #F5F3B3",
"S+	c #FDECBB",
"T+	c #F4F3A8",
"U+	c #E1A6B8",
"V+	c #77765B",
"W+	c #FCEDB4",
"X+	c #E6ADC9",
"Y+	c #B68499",
"Z+	c #2A1E29",
"`+	c #867D78",
" @	c #F1CDBC",
".@	c #E4B8BA",
"+@	c #AB7D95",
"@@	c #EAE8BE",
"#@	c #F0CBDD",
"$@	c #CB92B1",
"%@	c #E9C7BA",
"&@	c #A2BDED",
"*@	c #32321E",
"=@	c #F7E9B7",
"-@	c #ECCAE0",
";@	c #8AA4F1",
">@	c #554D38",
",@	c #F5DBBC",
"'@	c #E3C8AB",
")@	c #B47F9A",
"!@	c #A5C2F4",
"~@	c #A6BAEC",
"{@	c #342D24",
"]@	c #8A866E",
"^@	c #B4ABAF",
"/@	c #FAF2AC",
"(@	c #CC91AB",
"_@	c #958A8E",
":@	c #454359",
"<@	c #363648",
"[@	c #494A66",
"}@	c #4A5268",
"|@	c #473D57",
"1@	c #F6EDA8",
"2@	c #B67C97",
"3@	c #BCB599",
"4@	c #65697C",
"5@	c #283A57",
"6@	c #5B7A94",
"7@	c #749CC4",
"8@	c #77A6C9",
"9@	c #86A6C4",
"0@	c #8795B7",
"a@	c #7894AC",
"b@	c #678399",
"c@	c #395269",
"d@	c #3B445A",
"e@	c #3A4749",
"f@	c #B6A894",
"g@	c #D8C7CA",
"h@	c #595469",
"i@	c #5983A8",
"j@	c #365F85",
"k@	c #2C4C6D",
"l@	c #3E6582",
"m@	c #6589A7",
"n@	c #76A3BB",
"o@	c #59758A",
"p@	c #262B47",
"q@	c #7A7777",
"r@	c #253448",
"s@	c #67788B",
"t@	c #8C758F",
"u@	c #475775",
"v@	c #677895",
"w@	c #EFF1A4",
"x@	c #959494",
"y@	c #97B3F2",
"z@	c #242739",
"A@	c #7191AF",
"B@	c #6B93B7",
"C@	c #1A3755",
"D@	c #4C637A",
"E@	c #8686A7",
"F@	c #8F94B2",
"G@	c #A5ABD2",
"H@	c #9CA6C8",
"I@	c #565975",
"J@	c #1D2E4C",
"K@	c #F0B5D2",
"L@	c #29353D",
"M@	c #5365E1",
"N@	c #576884",
"O@	c #636886",
"P@	c #3A3C57",
"Q@	c #FCFCBE",
"R@	c #E8D8B9",
"S@	c #2E4454",
"T@	c #908DB6",
"U@	c #878DB8",
"V@	c #DBE1B5",
"W@	c #97947B",
"X@	c #746A5A",
"Y@	c #4B5251",
"Z@	c #364337",
"`@	c #4F6671",
" #	c #69A5CB",
".#	c #6CA6D4",
"+#	c #75AAD6",
"@#	c #3C6279",
"##	c #9599C7",
"$#	c #9DA1BA",
"%#	c #3A4964",
"&#	c #6A726C",
"*#	c #526458",
"=#	c #384757",
"-#	c #28494F",
";#	c #5F819A",
">#	c #483831",
",#	c #BCC1AB",
"'#	c #466685",
")#	c #6C9CC2",
"!#	c #8B94C7",
"~#	c #848CC3",
"{#	c #A7A49B",
"]#	c #6DAAD6",
"^#	c #787693",
"/#	c #BCAB92",
"(#	c #494839",
"_#	c #AC8787",
":#	c #7E8075",
"<#	c #A89A8A",
"[#	c #D2C69A",
"}#	c #CAB794",
"|#	c #BCAA84",
"1#	c #C3AA8A",
"2#	c #C59E8F",
"3#	c #B3878A",
"4#	c #B5A68B",
"5#	c #D2BD92",
"6#	c #B5A586",
"7#	c #BCAA8C",
"8#	c #C6A894",
"9#	c #B9988B",
"0#	c #BA9994",
"a#	c #1F2639",
"b#	c #E0D19B",
"c#	c #C9B886",
"d#	c #BBA584",
"e#	c #BCA57E",
"f#	c #BAA68A",
"g#	c #7D7768",
"h#	c #3B4FB7",
"i#	c #BBA879",
"j#	c #C29D95",
"k#	c #C2AA84",
"l#	c #86847A",
"m#	c #C2A68A",
"n#	c #332C1E",
"o#	c #8EABDC",
"p#	c #B07E8C",
"q#	c #C0A67F",
"r#	c #847968",
"s#	c #86A4CF",
"t#	c #978A7B",
"u#	c #7492CC",
"v#	c #3F55BB",
"w#	c #4359A9",
"x#	c #3C5698",
"y#	c #4864A3",
"z#	c #435CAE",
"A#	c #788CCA",
"B#	c #3549A4",
"    . + @ # $ % & * = - & ; & >   , ' ) ! ~ # { ] - = ] ^ / / ( & _ : < [ } | ] 1 2 ^ / 3 - { 4 | 5 6 7 . 8 9 ( 0 a ] b ] 9 c d ",
"e f ] # g h i j 8 / ( - k ] ( c c l , @ m @ # { ] / & 0 = 1 n e o   } p q # r ; ( ] k k ^ e e b s 9 ' ) t u v w ; 9 = = * * o b ",
"x 1 y _ z A B j C ] c ] ] ] k 9 = b c D E h F . k y ( & G = = = k H I J K t $ L ; & 9 ] 9 k a M /   ! N h ~ $ { ] ] - = k a C k ",
"C & c u O P 7 $ % { | 4 & 9 { 9 x Q y R O S T B v | { ]   & 9 a ] l U V W X Y Z v 9 ] ] ] { a * / > ) `  .T F ..a ] ] & & { k k ",
"a & c i +.V @.t i i u U { k ] - #.3 y $.%.&.*.=.B # # i > -.] M - ;.L N >.,.'.).!.j | a ] ] k * / & @ V ~.{.].Z i Z U   > { ] * ",
"k ] o y @ ^./.K (.+ t # $ k y ] - 9 d , J _.&.,.g :.r <.j 9 ] = #./ c [.^.}.|.) @ ' B $ | 4 - 1.1 b 2.E 3.~.@.h 4.Z Z v { ] * * ",
"] k * ( I 5.6.7.8.p 9.! ~ ..9 & ] { ; c Z z ^.6.E $.4.r 0.j ] ] a 4 a.b.(.O 7.c.K S 9.t r 2.& k M y l Z E %.d.A D !.$ 0.8 * * * ",
"] k = = ( e.f.< + !.[.[.~ 0.0.9 ] 9 &   H g.' m ' : + 4.r j 8 y & > h.d y j i.(.' h ) 7 t U & ] { 9 & c 8 j.@ ' @ k.l.r j 8 ] = ",
"9 / 1 1.1 ] y / & ; U k.' Z r 8 1 = ] & 0 & ( ; H b.: (.t i m.{ & 4 % a / n./ y d F 9.9.' u U y y k C ^ o / ; & > 4.k.4.u U ] 1 ",
"> & 1.1.= = o.f / ( c 4.p @ F v * f - k 1.1 / s ; c p.q.r.s.t.t.t.s.u.v.w.1 Q n b & !.x.: $ . * * a k & y / / ( c _ @ g f.~ % / ",
"_ U k * * - = = a y c 4.8. .y.B | ] * 1.1.1 = z.t.A.B.C.D.E.E.F.F.G.H.q.I.J.I.z.9 d t O (.} i C = - ;   4 k = 1 ( > k.N K.B Z { ",
"F i | 9 & & ] { > c d + L.|.'.).Z m.9 - - M.s.N.w.O.P.Q.R.S.T.U.V.W.S.X.Y.O.p.r.s.r.B ` z Z._ v C 4 & L { ] 1.1.s L R V `.g.I $ ",
" +B 0.U { & ; { { y y r L.^..+'.7 # i M.t.z.O.S.W.++U.Q.@+#+#+#+S.S.S.S.S.W.S.X.$+C.A.r.%+,.! . $ ..$ L   & - 1 o 9 $.}.&+*.=.7 ",
"A g ' # <...4 ] - 1.o.& m }.*+=+-+C.J.z.;+S.W.Q.#+>+>+#+,+,+#+#+#+#+#+#+#+#+T.S.W.X.O.N.'+)+~. .@ 0.r $ 2.4 0 ] - o , P !+~+z {+",
"8.]+^+' 0.0.v & ] = 1.( I @ O 7.r.u.F.S.W.@+#+/+#+#+(+,+_+R.#+,+#+:+(+(+(+(+(+#+Q.S.W.P.p.t.r.E <+: 0.0.r L & 0 k / c B |.7.[+p ",
"}+0.: k.!.# 0.4 & ] = = c H u s.q.;+++Q.R.T.#+#+#+:+(+(+_+U._+#+:+(+(+(+:+:+(+#+#+T.Q.W.S.|+r.t.' ^+: u 0.v ] ] { { & H , 0.1+r ",
"( c I ' @ ~ i v 0 * = - & ; 2+3+4+X.5+++W.S.U.R._+:+:+:+:+#+#+,+#+#+>+>+(+:+:+_+#+/+#+Q.R.Q.6+N.t.$ + @ 7+..9 y a | 9 ] / o ( ; ",
"] y H B  .g Z v { ] - * k '+8+9+0+a+b+c+c+c+b+W.R._+_+:+:+(+#+#+>+d+e+e+d+>+#+#+#+#+>+/+:+#+@+;+r.A.l.p ' Z % ] 9 9 9 k * / ] c ",
"= * & B =+E # $ 8 9 9 ] M.f+g+h+i+j+k+l+l+l+c+b+S.#+#+#+:+#+#+>+m+m+n+o+o+m+p+p+Q.T.>+#+q+@+#+X.$+B.M.d.) y.Z U ] ; & - 1.x M ; ",
"* 3 ^ # d.c.! Z $ U 4 q.2+9+r+s+t+k+k+k+j+j+l+c+S.S.#+#+(+#+#+p+a+u+v+v+v+w+o+o+5+p+>+#+_+q+x+y+X.F.t.q.z+A+B+. v { 9 - = 1.- 9 ",
"= 1.o > E ^.z+9.~ B ~ C+D+r+E+F+t+k+k+k+k+j+l+c+W.S.T.#+#+>+T.m+v+G+H+H+H+F+G+G+w+n+d+#+I+J+x+x+P.;+H.s.%+K+A+=.u 0.j { & / 9 k ",
"k #.* c Z.N ` 6.-+m L+M+N+O+O+H+t+k+t+k+k+l+l+c+S.S.#+#+#+>+T.a+G+O+N+N+N+N+O+H+F+w+m+p+#+J+J+x+x+P+Q+r.I.^.~.K ^+u $ r { ] { { ",
"] 1.* 9   B J N ]+)+2+9+R+E+H+F+t+k+k+k+k+l+j+b+S.#+#+#+T.>+T.m+S+O+H+N+N+N+R+T+E+H+u+m+#+(+J+J+x+U+$+G.t.p.+.A $.: u 0.v 4 & & ",
"- 1 * M ] H I _ U 2+V+r+O+O+S+v+i+j+k+k+j+j+i+W.#+#+#+/+/+>+Q.5+G+W+S+H+H+N+R+R+T+O+G+o+e+y+X+J+X+X+Y+$+N.Z+U { 0.+ @ 0.j { ( - ",
"k 1 = = - ] c c `+L+g+N+H+S+u+a+5+b+c+j+j+b+W.R.#+(+:+(+(+(+T.d+ @w+G+G+W+N+N+N+O+H+W+G+o+.@y+J+x+X+P++@E.A.`+n.y # m l.!.r k 1 ",
"k - - - k k 9 - M.M+@@N+W+G+a+p+Q.T.++#@++S.R.,+#+#+(+:+(+#+#+>+e+n+u+v+F+H+H+N+H+O+O+W+S+ @.@x+J+X+$@Q+F.B.C.] ;.I m p f.# j ^ ",
"v a 9 & ] ] k = C+D+N+H+G+w+T.R.#+/+T.#+S.U.U.q+_+,+:+J+(+:+#+#+>+p+m+u+v+F+H+N+H+W+O+W+S+w+%@y+x+X+$@Y++@H.I.] ( { p &@K.B $ { ",
"_ v U , 4 { * `+*@9+=@H+v+n+Q._+:+#+#+U.#+R._+-@_+,+:+(+(+(+#+#+#+#+p+m+w+G+S+H+H+H+O+W+W+S+%@.@x+X+$@Y+Q+E.Z+] ( 8 ;@V z+7 F $ ",
"A+B 4.u $ { ] v.>@@@F+G+w+e+#+I+:+#+#+#+S.W.S.V.#+R.#+,+,+(+#+,+(+#+#+p+m+u+G+H+O+H+=@=@W+S+,@'@y+J+$@)@+@F.I.p.* y 4.V *+5.'.f.",
"c.A @ ~ u v { M.V+s+F+G+0+.@_+_+#+#+#+R.W.-@-@++W.U.U.#+@+#+#+#+#+/+_+R.5+o+G+O+W+O+E+W+W+W+S+%@y+J+$@)@+@$+u.q.M y e.m !@^.~@z ",
"E < [.4.~ u j {@]@r+s+w+5+d+#+_+#+T.S.X.^@$+F.Q+Y.P.R.,+#+,+,+>+>+T._+R.p+0+w+W+O+/@/@/@/@W+S+n+y+X+(@)@)@Q+C.u.k 9 c I h z J {+",
"b.8 j : f.~ u 2+V+h+v+,@%@p+,+#+U.V._@:@<@[@}@:@<@|@w.X.S.Q.#+/+>+#+_+#+Q.5+o+G+H+1@/@/@1@O+=@o+y+X+(@2@)@$+H.r.] ] ] (   b.  > ",
"y 3 - 0.m K.Z v.2+3@u+ @5+p+_+U.P.4@5@6@7@8@9@0@a@b@c@d@6+R.#+_+#+U.U.R.>+e+ @w+S+E+/@/@/@E+W+w+.@U+2@2@2@$+q.q.{ k 1 1 ]   ( ;.",
"k / ( i -+ .F e@M.M.f@0+4+g@W.V.h@d@9@8@i@j@k@k@l@m@n@o@p@O.,+#+#+R.#+,+,+d+%@o+S+W+T+1@1@O+O+,@.@U+Y++@+@E.s.q@& 9 * 1.9 { - / ",
"a / ( j d.=+B r@}@s@e@)+^@++R.t@d@9@m@k@5@u@v@v@u@5@c@0@v@p@^@Q.T.>+#+x+x+y+.@n+G+O+T+T+w@T+R+G+e+P++@Q+w.I.s.x@{ 9 ^ ] { { 1.1 ",
"k ] ( v y@%+) z@c@0@A@c@<@p.O.|@m@B@C@D@E@E@E@F@G@H@I@J@a@o@|@V.>+(+:+K@K@x+.@ @S+E+T+T+T+w@R+G+g@6+t@h@z@h@L@)+r v k ] , { 1 M@",
"k a o y k.3.>.L@r@A@9@n@m@N@J@k@8@k@u@O@P@I@}@P@}@F@H@N@k@0@:@t@#+J+J+J+J+X+.@ @G+O+T+w@R+Q@N+R@x@:@r@d@s@4@L@v.t 0.1+..> & k M@",
"] 1./ ( 2. .^.M.<@S@b@n@n@8@7@B@i@C@O@[@E@T@G@H@N@[@U@0@r@s@b@P@V.q+q+q+q+R.d+0+h+s+V@9+3@W@X@Y@<@c@N@o@v@I@z@)+g t m.j ..{ 9 - ",
"/ 1 = - c I S q.f+_@Z@`@n@ #.#+#@#S@P@E@T@T@##U@G@N@I@$#I@%#a@5@x@6+;+O.Q+_@w.q@&#*#=#-#S@c@N@v@o@;#6@v@N@z@Z+w.@ : !...<.% & 9 ",
"] 1 = a ] ;.c G.>#9+,#*#-#'#)#7@=#=#}@T@##!#~#!#!#U@[@E@4@5@B@j@5@d@d@P@d@%#c@u@D@o@m@B@7@8@7@m@6@o@N@%#<@h@s.H , + $.r $ m.9 & ",
"{ 3 * & 9 1.1 {#C+D+r+h+{#v.5@o@=#<@O@T@U@##!#!#!#a@P@w.4@r@8@ #.#+#+#+#+#+#+#+#]#+#]# # #8@B@6@`@P@<@C.t@D.I.y & U @ D !.$ % y ",
". k - ] 9 1.- 1.C+M+R@v+R@4+q@:@h@z@[@F@!#!#~#!#!#^#|@^#I@%#)#]#]#]#]#]#]#]#]#.#.#8@8@n@m@`@-#L@<@D.E.Q+Q+u.q.a b 4 $.N *.Z <.{ ",
"_ m.a 9 ] ] ] * )+2+/#,@,@%@Y.B.4@z@<@E@##!###U@U@O@%#a@P@u@8@)#B@B@B@B@m@;#o@o@`@Y@e@Z@Z@(#M+]@_#Y+$+$+E.t.x@= ( U p !@S ).$ m.",
"Z.Z U m.| 9 - * = '+X@g+w+%@.@D.I@d@z@d@E@T@U@##E@p@v@v@C@A@m@C@P@P@P@=#=#Y@*#&#:#<#3@[#}#|#|#1#2#3#3#F.H.r.1 = y > D ^.|.7 B <.",
".+9.!.0.r a * 1 - q.>#4#g+0+5+;+<@4@r@r@P@I@^#I@P@I@O@5@'#9@c@4@V.V.P.Y.4+g@s+h+r+r+R@5#|#6#|#7#8#9#0#`+'+4 ] * ( c $ O !+|.S 9.",
"6.z (.!.r 0.8 ] ] - L+M+D+}# @%@w.<@s@=#a#<@%#u@N@u@5@'#9@v@<@^@q+J+y+.@ @w+G+=@=@b#c#|#|#7#7#7#d#/#f@q.M.{ & & 4 ( ( t ~.!+V |.",
"@ : ^+' # t j 9 ] - 8+*@W@7#}#'@4+E.u.4@N@c@r@5@k@@#i@n@v@<@|+Q.q+@+.@%@,@S+S+E+b#c#e#d#f#f#f#f#|#D+g#{@r 8 & { U k ( H } (.D h ",
"h#c i @ : t # % ] / * L+(#4#6#1#Y.Y._@<@}@s@a@0@0@0@m@u@<@Q+Q.y+y+4+%@o+G+=@b#c#i#i#|#|#f#d#d#f#/#W@*@f+~ . 4 ] 9 k - ] y ;.;.d ",
"3 ( d # K D Z . 9 ^ - - 2+f+f@f@8#2#j#|+p.|@|@|@|@P@|@w.Y.@+X+y+4+%@o+,@'@5#k#i#i#k#k#k#d#1#d#7#<#(#M.z+S Z.L y / ] - 1 - ] 3 1 ",
"= 3 b _ =+-+B $ % k 9 ] l#C+X@f@8#9#2#0#0#;+Q+Q++@;+P.@+Q.y+y+.@%@g+g+}#1#|#e#e#k#e#|#e#|#|#6#D+q.2+: 6.S B r { & ^ 1 1 = = = = ",
"k * o $ O &@! B i . | 4 4 g#C+8+4#1#f#9#_#_#Y+6+;+P+;+;+;+P+j#j#8#m#k#d#e#e#k#k#k#|#d#7#7#7#4#>@n#] @ !@) B i % % { 9 k ] k = 1 ",
"- - / L E }.o#9.B # . i . { q@C+3+D+/#/#/#9#_#p#+@)@Y+Q+_#3#9#8#1#k#k#k#k#e#e#|#6#d#7#7#4#W@(#n#1 ] !.6.6.) B u 0.i U > ] ] - 1.",
"] 9 ] d ' O V =+ .h ~ t Z 2.4 l#C+(#W@4#/#8#9#_#p#p#p#3#0#8#k#i#q#q#e#k#k#k#|#d#7#6#/#/#r#2+{@- = o , E 3.c.s#5.9.# ~ . U * 1 - ",
"y { k (   9.c.!@N A h ' t Z . ] 1 M.{@X@<#4#8#0#3#_#_#9#9#m#k#i#e#k#k#k#d#d#f#7#6#3@t#f+n#(#( 9 k ] y 4 h 6.%+z+) ' !.!.$ k * = ",
"] ] a k c e.B [.f.!.^+^+4.# i 9 - a 8+J.>#G.<#8#9#_#9#8#1#d#e#e#e#f#f#d#d#7#/#f@<#8+{@L+l#$ { ] 9 k / b & ~ @ ~ t @ @ ~ Z 9 ] k ",
"k ^ * k k ( c c w c i @ m 4.. { ] ] { { v.s.2+3+`+t#f@/#f#f#7#6#7#7#4#4#/#<#r#f+n#{@G.@ t u v ] 9 * 1 = ] w w c y u m u#~ L ] * ",
"k * / * = 1.1 3 3 b   !.p i.u U & ; 9 a k ^@)+{@C+{@>@X@r#`+t#_@t#]@g#8+(#n#n#M.g#; r p @ $ v & y 1 1.1.- ] / 3 o { @ A 9.U 8 * ",
"% a 9 / 3 1.= 1.= / c ' y@<+B i . 4 ] 9 ] 1 1.= ^@:#(#L+C+'+'+'+C+C+C+2+f+`+^@k k ( # !@g . v L , 9 ] ] k k 1.1./ { D +.9._ j k ",
". . % k - 1 * - C ] c [.V P '.Z . U 8 { ] & ] - - s , ~.g@{#x@_@x@^@g@- ] 9 9 ] ] ( u ` W ~ i _ U U { 9 & & * - ( U J !@@.F _ . ",
"! Z.# $ $ k / 9 L ] ; F ~.!+z+9.u 0.0.j 8 4 & ] - / & m /.&.5.f.!.u j v a ] & 9 * o L N /.W h u $ j ..{ ] ] k k ( & ^+^.%+`.7 f.",
"=+A ' # # m.- &   9 ] c [.^.^.N R k.$ r j v & ] a - ( > E }.~.N -+9.B u j ] & k = 3 ( ~ /.!+N R i.!.# Z . { * - * ;., E ^.&@E p ",
"N p + [ t $ % ] ] 9 - o & ! =+d.J $.: 0.0.m.{ 9 9 a ] l U < +.E <+^+: t t U & ^ - 1.(   [.z J R < @ 9.Z.. { ^ ] * / y 2.m +.8.;@",
"# m.0.: ' t r 8 9 ] 9 1 n.H F t =.).' : l.r U 4 & 9 {   b k j . _ !.^+' t t 2.& - = ] / d _ $ $ Z ' S 9.~ 8 - 9 9 - / v#  0.r U ",
"c c , ' 5.S 0.v 9 9 k = - > g.w#x#y#B ' @ l.r 8 9 { a L k ] w l z#Y ' (.A#! Z { a M k ] & h.e.w#e.Z.K.S : j C 8 a k - 9 4 h.a.B#"};
