/* XPM */
static char *_47b867bb46446cee7c0ba1b1ca80cddtDIBqy9XaFpJSt9R[] = {
/* columns rows colors chars-per-pixel */
"64 64 217 2 ",
"   c #3C5698",
".  c #3549A4",
"X  c #3E54AD",
"o  c #3B4FB7",
"O  c #3D54B4",
"+  c #3F55BB",
"@  c #4359A9",
"#  c #435CAE",
"$  c #4255B5",
"%  c #445CB5",
"&  c #4B5FB7",
"*  c #4156BC",
"=  c #4957BA",
"-  c #445BBC",
";  c #495DBD",
":  c #4864A3",
">  c #4660B4",
",  c #4B63B5",
"<  c #4F69B2",
"1  c #4760BC",
"2  c #4B63BC",
"3  c #4F6ABB",
"4  c #546CB4",
"5  c #5166BD",
"6  c #526BBD",
"7  c #5C6FBE",
"8  c #5A76B4",
"9  c #5F7BB7",
"0  c #5770BE",
"q  c #5B73BC",
"w  c #5F7ABB",
"e  c #617CB7",
"r  c #6276BD",
"t  c #627ABD",
"y  c #687DBE",
"u  c #3D54C3",
"i  c #3D53C9",
"p  c #3F58C9",
"a  c #4256C3",
"s  c #455BC4",
"d  c #495EC4",
"f  c #4456CB",
"g  c #465CCA",
"h  c #495ECC",
"j  c #4356D1",
"k  c #465AD2",
"l  c #4A5ED3",
"z  c #4759DA",
"x  c #4C5FDA",
"c  c #4661C3",
"v  c #4C63C4",
"b  c #4E69C5",
"n  c #4761CD",
"m  c #4D63CB",
"M  c #4F69CC",
"N  c #5166C5",
"B  c #536AC5",
"V  c #596EC5",
"C  c #5166CD",
"Z  c #546BCC",
"A  c #596ECC",
"S  c #5770C4",
"D  c #5C74C4",
"F  c #5E79C4",
"G  c #5770CB",
"H  c #5C74CC",
"J  c #5E78CB",
"K  c #4D63D3",
"L  c #4F69D2",
"P  c #4E63DA",
"I  c #5166D4",
"U  c #546AD4",
"Y  c #596ED4",
"T  c #5266DA",
"R  c #556ADA",
"E  c #596EDB",
"W  c #5770D4",
"Q  c #5C73D3",
"!  c #5F79D3",
"~  c #5C72DB",
"^  c #6175C4",
"/  c #637CC4",
"(  c #697CC2",
")  c #6074CB",
"_  c #637CCC",
"`  c #697ECC",
"'  c #6176D3",
"]  c #647CD3",
"[  c #697ED4",
"{  c #6376D8",
"}  c #657CDA",
"|  c #697EDB",
" . c #5365E1",
".. c #566AE2",
"X. c #5A6EE1",
"o. c #5D72E4",
"O. c #6482B5",
"+. c #6581BC",
"@. c #6A84BD",
"#. c #6D8CBB",
"$. c #718EBD",
"%. c #6681C4",
"&. c #6A84C5",
"*. c #6C89C5",
"=. c #6681CC",
"-. c #6B84CC",
";. c #6D89CC",
":. c #728CC4",
">. c #788CC6",
",. c #7286CD",
"<. c #728CCC",
"1. c #788CCA",
"2. c #7491C6",
"3. c #7892C5",
"4. c #7C9BC6",
"5. c #7492CC",
"6. c #7A94CC",
"7. c #7D9ACD",
"8. c #6781D2",
"9. c #6B83D3",
"0. c #6E89D4",
"q. c #6C83DB",
"w. c #6E89D9",
"e. c #7286D4",
"r. c #738CD3",
"t. c #7A8ED4",
"y. c #7286DB",
"u. c #748DDB",
"i. c #798BDC",
"p. c #7691D4",
"a. c #7B94D4",
"s. c #7D9AD3",
"d. c #7791DA",
"f. c #7B94DB",
"g. c #7E9BDB",
"h. c #6D84E2",
"j. c #7187E5",
"k. c #758CE2",
"l. c #7B8DE2",
"z. c #7B8FEB",
"x. c #7591E1",
"c. c #7C94E3",
"v. c #7E9AE2",
"b. c #7D94EB",
"n. c #819DC9",
"m. c #889ECB",
"M. c #8197D5",
"N. c #819DD3",
"B. c #8297DC",
"V. c #829BDC",
"C. c #889EDD",
"Z. c #86A4CF",
"A. c #86A3D4",
"S. c #8AA4D2",
"D. c #8DAAD5",
"F. c #86A3DB",
"G. c #8AA3DC",
"H. c #8EABDC",
"J. c #90AED6",
"K. c #92ACDC",
"L. c #9CAEDE",
"P. c #95B2DB",
"I. c #98B5DF",
"U. c #9EBADE",
"Y. c #8297E4",
"T. c #829BE2",
"R. c #889FE2",
"E. c #8096E9",
"W. c #849DE9",
"Q. c #86A1E2",
"!. c #8BA5E3",
"~. c #8EAAE3",
"^. c #87A0E8",
"/. c #8BA4EB",
"(. c #8EA9EA",
"). c #90A3E6",
"_. c #93ACE4",
"`. c #98AFE3",
"'. c #93ADEB",
"]. c #95B1E4",
"[. c #9BB4E4",
"{. c #9CBBE5",
"}. c #95B1EA",
"|. c #9AB5EC",
" X c #9DBAEA",
".X c #8AA4F1",
"XX c #94ACF2",
"oX c #97B3F2",
"OX c #99B5F2",
"+X c #9EBAF4",
"@X c #9CB5FA",
"#X c #A3BDE6",
"$X c #A6BAEC",
"%X c #A2BDED",
"&X c #A1B7F5",
"*X c #A3BDF3",
"=X c #A2BBFA",
"-X c #A4C1E4",
";X c #A8C2E7",
":X c #A4C2EC",
">X c #AAC5ED",
",X c #A6C8EA",
"<X c #AAC9EE",
"1X c #B4C5EE",
"2X c #B1D0EE",
"3X c #A5C2F4",
"4X c #AAC5F3",
"5X c #ACCAF3",
"6X c #A5C0FA",
"7X c #A9C5FA",
"8X c #ADCCF9",
"9X c #B1C7F2",
"0X c #B2CDF5",
"qX c #B4CCF9",
"wX c #B3D2F3",
"eX c #B4D1F9",
"rX c #BAD4F8",
/* pixels */
"2 2 J c.d.` ] Q v K R I v c v B 2 V r.s.*.=.` Z m I R m n h h s v D u.W.e.^ A m P L n h l I Z N A z.^.&.J W C s b Y m a m C - ; ",
"i k m ` V.a.) } W h s I U m s - - $ V d.g.d.` Z m h v b R P j i g 2 ^ /.t.` [ c s m U U n i i a u C r.s.-.8.! O c C R R K K g a ",
"..P d D _.!./ } ~ m - m m m U C R a - T.}.a.F J U d s v M R R R U % 6 '.G.-.] G c v C m C U Y E h 2 *.|.a.=.] Z m m I R U Y ~ U ",
"~ v - 8.*X[.&.] Q Z A N v C Z C ..z d XX*X6.8 / ! A Z m 2 v C Y m $ H 4XP.+.q _ ! C m m m Z Y K h B s.8XF.8 F { Y m m v v Z U U ",
"Y v - ) OX4XA.-.) ) 8.H Z U m I X.l d Y.7X#X:.t / ` ` ) B 1 m E I * G |.-XS.@.r 9.} A Y m m U K h v d.4X{.$.e _ ) _ H 2 B Z m K ",
"U m g d d.5X<XG.B.c.-.` ] U d m I C ; V '.rX#XS.V.i.[ | } C m R X.h - p.5X0XK.s.d.r./ ] A N I T P a S }.eX{.A.a.0._ _ ! Z m K K ",
"m U K s 6 N.:X6X@X/.<.*.=.{ C v m Z c - _ _.5X:X}.Y.0.[ q.} m m Y N X 3 B.*X6X XG.6.<.-.[ S v U E d $ _ }.7X+X!.T.9.] q.W K K K ",
"m U R R s , ;.W.c.9.p.p.=.q.q.C m C v 2 % 4 r.g.r.u.c.0.[ } W d v B 5 ; d } E.B.r.a.s.&.-.H v m Z C v - W k.d.r.d.v.y.[ } W m R ",
"C h P T P m d h v c H v.r._ [ W P R m v b v s c % 3 u.B.-.) ' Z v N Q Y h f h d ; F <.<.r.8.H d d U ~ n g h c v B 0.v.0.8.H m P ",
"B v T T R R x k h s - 0./.d.F ! K k I U T P h u c - 4 G.M.` [ Q v ; C I T P z j a v 9.C.u.] J K K Y U v d h h s - D d.V.;.=.Q h ",
"D H U K K I R R Y d - 0.@XF.9 / A m K T T P R R R u 2 `.`.,.] Q A v d s T X... .C ; -.*XB.^ ) ~ R I c 2 N U R P s B v.|.2./ _ Z ",
"F ) A C v v m Z B - ; c.&XK.@.r _ ' C I I K R o.R i Z *X$Xa.^ ) ] ' Z v m b C U C - / 8X_.%.D ! ~ N v G Z m T T u G XX4X7.4 6 ] ",
"y / q.H Z v c Z Z d d [ &X5Xn.@.&.` ) ] Z n P R R h N G.1XL.>.y / | } } Z % c C C - J *X,XS.*.J ] { ] G 2 v I P g C Y.0XU.:.t &.",
"!.V.r.` | { N m I T x v g.0X>X].~.a.&.-.] H m m U I ; q [.qXU.K.C.0.! } { B v K T d , r.>XwX{.F.d.q.[ ] S N b m I g V [.wX;X_.R.",
"@X(.f.r.q.q.! v m R T s 6 d.*X6XXXC.a.-.0.` Z c m R h $ 9.'. X*X'.d.8.} | ' C I I m - , s.3X3X}.Q.u.q.q.[ G v b U h - / K.6X=X/.",
"j.q.u.v.9.` q.N v m R R - % 8.k.{ q.T.u.` ` ] v m I C h s N w.u.` r.c.q.q.} I C m m U 2 v } w.9.r.f.u.8.q.! m m Z Z v % V q.h.[ ",
"s - 6 r.d.=.) ! b K R I v c c - a m [ f.;.9.} C m C Z C d - c - - B q.g.,.[ { C m m I U K h h s 2 ] c.d.w.{ C d Y A C m h g s c ",
"m d % / F.V._ ! Z m I K U M s d n h B 6.F.d.{ Y m v N Y C m m v d - H '.N.-.] ; d C m T K K P m a v y./.r._ Q m C C C U K h m - ",
"R K v / ].}.` ] W C C m C C m U E h 2 A.{.s.H | W m K C b I  .R C - H *XD.+._ Z m C I h I I I E K m y.+Xs.9 _ H m c v I T ..E c ",
"K l n ` +X X*._ ] H N Z N v m R E s 1 _.,XZ./ ] ] W U v v I  .R I - S *X[.:./ 8.J Z A C I m m U I I c.8XD.O.w J ! Z C I R T I C ",
"R T g B }.5XD.<.=./ =.8.S 2 v U R h - r.:X,Xs.t +.-.] ) J R P  .T h Z _.5XI.:.( %.` [ } C m C v d m u.3X,X4.O.t 8.q.} Z v h C U ",
"U X.K - %.|.8X:X~.g.r.` _ J Z n K T m ; C.eX5X].D.4.%.=.[ U P  . .h - ` |.eX:XH.F.r.=.[ H m m I U - 3 V.4X5X{.G.f.8.] [ Z m Z Z ",
"m T K C 2 / '.|.(.W.f.` =.q.H m K R m * V B.|.|.H.7.<.=.[ { U K T I d - ] (. X].Q.d.-.] | Y h R U v O 3 g.+XOX!.Y.u.8.q.! N v v ",
"I P K E m % 6 D H ] y.u.0.] J v U K m I s = A ) S =.g.0.` [ ' N m Y Z d - V _ H H e.u.q.q.} U n L U m O , S H Z q.c.d.q.} Z s I ",
"U P R R I m - - s * V c.c.9.8.Z m m U R I g g h p c =.V.;._ ] A m m I R m h g s ; V u.v.9._ ' Z m L U Z - d K f d ` g.y.9.[ U P ",
"U I I I U U C I m s - 9.(.Y.` ! C h C I R I k K K u b Q.A.*.` W C h P R R P h m d - ] XXs.^ ' U m h K ~ v v U m * 6 g./.;.` } n ",
"! Y C v m m U R R m ; r.+X!./ _ Q Z Z m m I R R R i v |.U.3./ ) J Z m l K I U U C $ ` 7XD.t ' Q W C m K C Z B m s Z /.%X2./ ] Z ",
"D ! H V N Z K P T m v d.:X{.1./ ) [ J b c v Y ~ Y s N |.>XA./ _ ` H V U m m Z Z C s -.4X{.<._ ) [ ] V v Z Z v m s W .X4XD.&.F ] ",
"O./ 0.8.] Z m I T K - F [.eXK.1.&.-.=._ H B v m C c 3 r.4X4XM.&./ / 8.q.Z c C m R v 6 ~.4X].6.@./ 9.q.] Z v C U K d 0.4X>XN.@.;.",
" X!.d.=.8.! Z m P P s % *. X4X3XoXB.&./ 8.] Z v C Z 2 2 R.8X4X:X_.u.8.9._ N m K R m - =.}.5X5X Xs.-.0.q.J N m I E d , g.3X5X$X_.",
"}.W.p.0.=.8.} m K X.U - > / Q.'./.Y.r.r.` ) W C m C v - A v.'.'./.Y.r.=.8.] m P R I h - / Q.'.(.Y.d.=.` ] Q C m U C - 6 a._.'.R.",
"3 W } u.;.=.8.Z m R ~ m + $ 2 V B ) l.Y.-.0 Z U K m C C s m A 2 5 8.a.r.0.| Z m K R T s $ v v 2 ] u.p.-.] ' Z C m m m s 2 3 2 B ",
"d l I q.g.2._ } m s m m I I v s d s V f.g.r.[ Y K K U R h h m - - 5 -.g.r.q.} m d C R T P v - - - V <.N.u.) Z Z Z U P P m 2 s * ",
"U h s ) ~.F.F { H v d I R I I K T a & V._.f._ U I K m I R R I m m * S |.A.%.} Y d d K  .P K Z C a ; r.[.6.` [ N v C K T C Z I h ",
"Y h s } +X]./ { ! A Z m h K U Y R f 2 _. Xs./ ' Q Z N v I R I K I s S 4XP.@._ ! W Z v l x I Z U h v d.4X7.` [ N Z C n m Z Z T P ",
"U m s ! oX,Xs.` / _ ) Z m m m C I h 2 F.3XK.1.` _ ) _ V m n K I R - 0 %X-X4.&./ ] [ A m C m m I K m u.7X[.<._ ] [ ! U m V Z P  .",
"U Y g d v.eX-X4.#.*.-.8.] Z v v I I 2 8 {.rXJ.2.r.9.8.q.Q v b I T s 3 s.0X,X4.$.*.0.[ ' B v T T I s H |.eX].p.r.-.q.h.{ B v U  .",
"m T h s S F.5XwX:X!.u.[ h.| C n K I c # *.:X5X>X'.v.q.} [ J B m P P c < n.5XwX,X!.u.8.` 8.W h T ..h ; *.{.5X3X|.V.-.' } { Z C I ",
"h P R I - 6 6.].(.b.d.0.w.q.Y T P I m - , ( V._.d.k.b.q.8.] N v R R m $ 4 p.~.!.d.u.u.=.0.} K P T I v # / Q.!.T.d.u.9.{ | Q v C ",
"m P R Y m * - - d C ` d.r.=.Q R P P U Z 2 % % - - H c.c.0.] H d I E U I s $ - $ 2 =.v.d.=._ Y I h U Y s s v 2 % V c.Y.[ ] ' C v ",
"Z l K v C T P l j a 6 0.s.p.=.W K h m B C m d h n d V V.B.r.] Z h I E U l g g l d , ;.Q.*.w _ m h C U I P h d d v H d.T.9.] Q d ",
"J U I m C T I T R a % d.|.F.` Q C v I P P P I I R a % _._.:.^ ! m h C m I T T R v # / +Xs.r ] C m c v R ..T U Y a N Y.|.:._ | Z ",
"D ' Y C m m m K R m > a.3XH.%._ H G U I P P P I R a 6 %X[.:./ J Q A v d v U R Y Z d 8.7XH./ ) J H 6 c I P P R R s H /.3X6.r ] ' ",
"%._ H ' A C I K R v % -.+X:X6.@.-.` J ! R I K I R s B ].-XD.<./ 8.[ ) V 6 m I I n h q.6X Xs.%.%.-._ J U K l P R d B T.5XK.&./ | ",
"n.<.9.q.[ Y K P I I d 3 H.rX#Xm.6.t.-.9.} Z d R R C = r >X0XZ.6.a.r.[ 9.S c m I l u Z (.eX:XZ.6.<.9.q.] H N m K s - ] *XwXK.6.<.",
":X_.B.9.[ q.W m m I m - S G.5X9X|.!.1.( 8.[ B C m U h = -.$X5X>X[.B.y.] | J c K P g s 6 F.5X5X%XG.u.8.` ] Z v v N s s -.{.wX4XK.",
"d.u.f.r.` -.} C m I m m - N u.Y.l.i.a.&.%.=.J v c C U d $ _ W.v.r.d.c.q.q.` B m R Y d O V u.B.d.d.f.r.` [ W v Z H U s % ^ B.T.a.",
"o - ) d.u.-.` Q m h K I I h s a u m u.f.;.%.] B v K I C m d h u O D g.c.0.) J C I I C Z v s + a v q.g.;.=.J N m C U I m d * * ; ",
"l s ; ` G.T._ J C n I I U K K P z a 6 V.V.*._ B v K K m I P K K K 2 F Y.v.q.| n s K U Z K l z x f C <.D.6.%.G d h m I P I m l P ",
"R l a D ].~./ ] Q U C m m I I ....f % V.|.6.) q.! m m v U R I U R d D |.F.%.{ Y m m m m C U E R l d u.:X6./ [ Z v n P P R R R R ",
"U K g ] *X%X*./ ) J A N N m n T ..f % !.4XS./ ] [ H A C m m b U P f H 3XP.@.F H ! Y m C m C E I h m d.3Xs./ ) Q Q Z C U m U R P ",
"I I h G }.0XH.<./ ` J ) J Z m P ..g 2 a.>X#X6.( ` q.[ Q m c b L T h Z ].<XJ.:.` 9.q.G ! v v I I P m 9.:X:Xs./ 8.q.) H B m m I T ",
"m C m ; r.*X4X].F.a.=.-._ S N m P P v 7 _.qX$XK.a.9.] q.{ Z Z K R n v ;.5X2XD.N.B.0._ ] H v m I R g V }.eX XZ.N.<.` =.J H K P I ",
"d Z U s 2 <. X3X|.!.a.r.-._ J m P R v $ ^ ).$X$X'.v.r.` 9.] Z P P L v 2 *.D.#X*X'.f.-.=.9.G s C U m d N a.:X,XD.s.r.9.9.] U K R ",
"m m Y U - , / p.;.9.f.f.0.` ) C I Y Z % $ V ,.e.q.x.f.-.;.` U T K M v - % w r.r.8.u.f.=.9.] Z m C U h a v =.d.=.-.d.d.=._ C m U ",
"U n K U U s - - O - ) d.g.0.J Z m m Z Z v ; $ $ $ b 8.M.t.[ Q U m m M L C C - o $ ! x.d.-.8.! m C K P R m O O - d 8.g.5.=.G m K ",
"U K h K R T P l l a 2 9./.E.8.H v c C Y U K K h K s v G.R.y.| B c m L L T T x T C c [ /.d.] ! v d P T T I m h l g Z d.!.<.H W K ",
"Q Y C h l T R T R h - r.oXQ./ ) J N m C m P T R R u c ]._.r._ ! U K K P K P R U U s ` 3XV.J ! G V C m m U U T T h Z T.OX<.D } U ",
"J J Q U I P K I ~ m - p.4X[.@._ J H W Z m v m I I u V {.#X7./ J W Y E I m C C m m s 8.8XP.=.) D H H Z C v v K I s H '.3XA.F D J ",
"*.%.` ] ] U h C G m c F {.wXD.<.8.q.q.} W N v m I h v g.<X#XN.;.9.8.} ! Y m v C K g G |.<XP.a.8.] } { Z m m U U s v f.5X,X7.&.;.",
"].!.r.` ` ' I v 2 C m - p.5X5X|.XXv.] [ } ! v m Y I s B }.0X{.|.~.<./ 8.} m v U R l s =.<XwX|.XXE.9.` _ J Z K I K * V }.5X%X}./.",
"|./.c.e.-.] Q m m C I g v *.].+X'.Y.u.q.q.' Z C C Y m $ H W.OX}.Q.f.u.-.-.H v n I T s 2 p._.'.XXW.d.<.%.J Z n m K h d S g.OX@X.X",
"` ' q.u.r.-.[ W C m C P f % F -.t r r.u.y.[ H N v C Z 2 a U } J D 9.f.r.-.-.S v I R m h ; D ] ] _ r.6.<.=.W I C C I h + 2 q.[ H ",
"- - V r.N.6.q.! C C U R I B 4 @   : / r.d.y.[ W C Z Y G U m O $ # q r.B.1.*._ Z Y E U m v 5 , @ , %.2.6.u.} ~ W Y U I C N 5 X . "
};
