/* XPM */
static char *_ecd664e0ab9478cfdc1c92443b50c15VyAjB3HFU3hizZD0[] = {
/* columns rows colors chars-per-pixel */
"64 64 187 2 ",
"   c #374451",
".  c #3C5162",
"X  c #534F57",
"o  c #715867",
"O  c #6F696C",
"+  c #77646E",
"@  c #7F676E",
"#  c #7F737A",
"$  c #816776",
"%  c #8B677F",
"&  c #866878",
"*  c #866B7D",
"=  c #84717B",
"-  c #8B7179",
";  c #93777F",
":  c #697A8A",
">  c #4479A6",
",  c #4879A4",
"<  c #8C6D81",
"1  c #906C84",
"2  c #867480",
"3  c #8C7281",
"4  c #8D7B86",
"5  c #927485",
"6  c #947C85",
"7  c #957C8B",
"8  c #9B788B",
"9  c #997B8E",
"0  c #6A859C",
"q  c #4E82B0",
"w  c #7886A1",
"e  c #7E91A2",
"r  c #7093B5",
"t  c #8B8687",
"y  c #9D8087",
"u  c #94848C",
"i  c #9C818B",
"p  c #988A8D",
"a  c #888296",
"s  c #9E8594",
"d  c #968C91",
"f  c #9C8B93",
"g  c #9D9196",
"h  c #9E959A",
"j  c #A3848D",
"k  c #A48296",
"l  c #A48B95",
"z  c #AC8C95",
"x  c #A5859A",
"c  c #AA859C",
"v  c #A48C9A",
"b  c #AA8A9E",
"n  c #B18F97",
"m  c #B38E9C",
"M  c #A4939C",
"N  c #AA939C",
"B  c #A1989A",
"V  c #A9999E",
"C  c #B4939D",
"Z  c #B8959E",
"A  c #9E9FA4",
"S  c #AF87A0",
"D  c #AE8CA1",
"F  c #B38BA3",
"G  c #B78CA8",
"H  c #B98EA9",
"J  c #A790A0",
"K  c #AC94A3",
"L  c #A69CA2",
"P  c #AD9BA6",
"I  c #B694A2",
"U  c #BB93A7",
"Y  c #B39CA3",
"T  c #BC9AA3",
"R  c #BA94AA",
"E  c #B99FAA",
"W  c #9BA2A6",
"Q  c #ABA2A6",
"!  c #ADA3AA",
"~  c #B0A1A6",
"^  c #BAA1A7",
"/  c #B3A6AC",
"(  c #BBA6AB",
")  c #B4A9AD",
"_  c #BDA9AF",
"`  c #AFAEB0",
"'  c #BCA2B4",
"]  c #B5ACB1",
"[  c #BCACB2",
"{  c #B4B3B4",
"}  c #BAB4B6",
"|  c #B7B5BB",
" . c #BDB5B9",
".. c #BDB9BA",
"X. c #C19DA6",
"o. c #C094AF",
"O. c #C39FA9",
"+. c #C397B0",
"@. c #C69AB4",
"#. c #C99CB6",
"$. c #C3A3AC",
"%. c #C9A5AE",
"&. c #C3A9AF",
"*. c #C1A7B2",
"=. c #CCA6B2",
"-. c #C5ACB3",
";. c #CCAAB3",
":. c #CDA7BA",
">. c #C5AFB8",
",. c #D1ABB5",
"<. c #D0A5BB",
"1. c #D3ABBB",
"2. c #C5B2B7",
"3. c #C4B4B9",
"4. c #CBB3BA",
"5. c #C3BABE",
"6. c #D5B2BB",
"7. c #D9B4BE",
"8. c #D7B8BF",
"9. c #D7ABC0",
"0. c #DBADC2",
"q. c #C5BDC1",
"w. c #CABDC0",
"e. c #D5B6C6",
"r. c #DDB4C3",
"t. c #D3BBC5",
"y. c #DDB9C3",
"u. c #DBBCCC",
"i. c #DFBFD0",
"p. c #E1B5C5",
"a. c #E2BBC5",
"s. c #E1B7C8",
"d. c #E5BCC9",
"f. c #E9BECC",
"g. c #C5C3C4",
"h. c #C9C2C5",
"j. c #CBC6C9",
"k. c #CDCACB",
"l. c #D3C2C7",
"z. c #DAC0C7",
"x. c #DEC4CA",
"c. c #D1CCCE",
"v. c #CDCED0",
"b. c #D2CED1",
"n. c #D5D2D3",
"m. c #D9D7D8",
"M. c #DCDBDC",
"N. c #E4C1CB",
"B. c #ECC2CD",
"V. c #E0C9CE",
"C. c #E0C4D1",
"Z. c #EEC3D1",
"A. c #E3CAD2",
"S. c #EAC9D4",
"D. c #EFCED9",
"F. c #F1C4D2",
"G. c #F4CBD5",
"H. c #F8CED7",
"J. c #F3CDD9",
"K. c #ECD1D8",
"L. c #E0DDDE",
"P. c #F5D3DC",
"I. c #F9D4DD",
"U. c #F9D6DE",
"Y. c #F0D9DF",
"T. c #E1DFE0",
"R. c #F6D7E0",
"E. c #F6DAE1",
"W. c #F9D9E1",
"Q. c #F8DCE2",
"!. c #FADCE3",
"~. c #FBDFE7",
"^. c #E5E3E4",
"/. c #E5E5E5",
"(. c #E8E7E7",
"). c #ECE9E7",
"_. c #E9E7E8",
"`. c #ECEBEC",
"'. c #EEEDEE",
"]. c #FBE0E6",
"[. c #F1EDEC",
"{. c #F2EFF0",
"}. c #F4F3F4",
"|. c gray97",
" X c #F8F8F7",
".X c #FDFDFD",
"XX c white",
/* pixels */
"XXXXXXXXXXXXXXXXXXXXXXXXXXXXXXXXXXXXXXXXXXXXXXXXXXXXXXXXXXXXXXXXXXXXXXXXXXXXXXXXXXXXXXXXXXXXXXXXXXXXXXXXXXXXXXXXXXXXXXXXXXXXXXXX",
"XXXXXXXXXXXXXXXXXXXXXXXXXXXXXXXXXXXXXXXXXXXXXX|.XXXXXXXXXXXXXXXXXXXXXXXXXXXXXXXXXXXXXXXXXXXXXXXXXXXXXXXXXXXXXXXXXXXXXXXXXXXXXXXX",
"XXXXXXXXXXXXXXXXXXXXXXXXXXXXXXXXXXXXXXXXXXn.3.8.n.XXXXXXXXXXXXXXXXXXXXXXXXXXXXXXXXXXXXXXXXXXXXXXXXXXXXXXXXXXXXXXXXXXXXXXXXXXXXXX",
"XXXXXXXXXXXXXXXXXXXXXXXXXXXXXXXXXXXXXX^.^ N.U.F.g.XXXXXXXXXXXXXXXXXXXXXXXXXXXXXXXXXXXXXXXXXXXXXXXXXXXXXXXXXXXXXXXXXXXXXXXXXXXXXX",
"XXXXXXXXXXXXXXXXXXXXXXXXXXXXXXXXXX}.5.8.H.G.G.;./.XXXXXXXXXXXXXXXXXXXXXXXXXXXXXXXXXXXXXXXXXXXXXXXXXXXXXXXXXXXXXXXXXXXXXXXXXXXXXX",
"XXXXXXXXXXXXXXXXXXXXXXXXXXXXXXXXM.( Z.H.H.G.F.) XXXXXXXXXXXXXXXXXXXXXXXXXXXXXXXXXXXXXXXXXXXXXXXXXXXXXXXXXXXXXXXXXXXXXXXXXXXXXXXX",
"XXXXXXXXXXXXXXXXXXXXXXXXXXXX X5.6.H.H.H.H.G.&.'.XXXXXXXXXXXXXXXXXXXXXXXXXXXXXXXXXXXXXXXXXXXXXXXXXXXXXXXXXXXXXXXXXXXXXXXXXXXXXXXX",
"XXXXXXXXXXXXXXXXXXXXXXXXXX}.P r.Z.Z.B.B.f.1.j.XXXXXXXXXXXXXXXXXXXXXXXXXXXXXXXXXXXXXXXXXXXXXXXXXXXXXXXXXXXXXXXXXXXXXXXXXXXXXXXXXX",
"XXXXXXXXXXXXXXXXXXXXXXXXT.K <.9.0.0.9.1.<.]  XXXXXXXXXXX|.M.c.w./.XXXXXXXXXXXXXXXXXXXXXXXXXXXXXXXXXXXXXXXXXXXXXXXXXXXXXXXXXXXXXX",
"XXXXXXXXXXXXXXXXXXXXXXT.v +.@.#.#.#.#.#.f |.XXXX/.j.k.5.l.Y.Q.U.[ XXXXXXXXXXXXXXXXXXXXXXXXXXXXXXXXXXXXXXXXXXXXXXXXXXXXXXXXXXXXXX",
"XXXXXXXXXXXXXXXXXXXXn.s #.@.@.@.@.@.+.l /.n.5.4.8.a.B.J.H.J.P.G.^ XXXXXXXXXXXXXXXXXXXXXXXXXXXXXXXXXXXXXXXXXXXXXXXXXXXXXXXXXXXXXX",
"XXXXXXXXXXXXXXXXXXn.v #.+.@.#.R F F M  .4.K.~.W.H.H.H.H.G.F.F.a.I /.XXXXXXXXXXXXXXXXXXXXXXXXXXXXXXXXXXXXXXXXXXXXXXXXXXXXXXXXXXXX",
"XXXXXXXXXXXXXXXXM.b +.@.@.x N 4.y.6.f S.W.~.~.Q.U.H.H.G.G.F.F.,.Z k.XXXXXXXXXXXXXXXXXXXXXXXXXXXXXXXXXXXXXXXXXXXXXXXXXXXXXXXXXXXX",
"XXXXXXXXXXXXXX`.K +.+.@.@.E ~.W.H.F.J.P.W.~.~.~.W.G.F.F.G.F.F.f.O.h.XXXXXXXXXXXXXXXXXXXXXXXXXXXXXXXXXXXXXXXXXXXXXXXXXXXXXXXXXXXX",
"XXXXXXXXXXXX'.b +.o.+.@.#.l ~.U.H.P.P.W.Q.Q.Q.W.P.F.F.F.F.F.F.F.Z.[ |.XXXXXXXXXXXXXXXXXXXXXXXXXXXXXXXXXXXXXXXXXXXXXXXXXXXXXXXXXX",
"XXXXXXXXXX|.K o.+.+.+.F N Q J.P.P.P.P.P.P.P.P.P.G.F.F.F.B.F.F.F.F.d. .XXXXXXXXXXXXXXXXXXXXXXXXXXXXXXXXXXXXXXXXXXXXXXXXXXXXXXXXXX",
"XXXXXXXXXX} G o.H D / M.XX|.;.H.R.P.P.P.P.P.P.J.F.F.Z.r.h O ;.F.F.F.E '.XXXXXXXXXXXXXXXXXXXXXXXXXXXXXXXXXXXXXXXXXXXXXXXXXXXXXXXX",
"XXXXXXXXb.S G b k.|.XXXXXXXXq.N.W.P.P.P.P.P.J.F.F.s.s.[ | n.X s.F.F.,.`.XXXXXXXXXXXXXXXXXXXXXXXXXXXXXXXXXXXXXXXXXXXXXXXXXXXXXXXX",
"XXXXXX`.D G ! }.XXXXXXXXXXXXm.N.W.z.4.D.S.G.F.F.F.a.d...A :   J F.F.6.'.XXXXXXXXXXXXXXXXXXXXXXXXXXXXXXXXXXXXXXXXXXXXXXXXXXXXXXXX",
"XXXX|.M H ! XXXXXXXXXXXXXXXXl.H.N.{ ` &.%.F.F.F.F.F.y.b.g.> q w F.F.4.|.XXXXXXXXXXXXXXXXXXXXXXXXXXXXXXXXXXXXXXXXXXXXXXXXXXXXXXXX",
"XXXXh.c P  XXXXXXXXXXXXXXXXX[ H.;.^.{ d ,.F.F.F.F.F.p.b.).0 r ' F.f.j.XXXXXXXXXXXX X`.M.m.h.5.} / / ] 3.5.c.T.'.XXXXXXXXXXXXXXXX",
"XX|.x b '.XXXXXXXXXXXXXXXXXX_ F.,.[.W . z F.F.F.F.F.F.3.{.Q :.F.F.>.|.XX XM.g.! M s 9 5 < * 5 7 7 7 i s v x F R P M.XXXXXXXXXXXX",
"XX) F k.XXXXXXXXXXXXXXXXXXXX~ F.s.m.v., a F.F.F.F.F.F.6.&.B.B.d.E M...f * < 5 < 4 d Q ..k.`. X X X X X X X Xm.} F 7 |.XXXXXXXXXX",
"}.k K  XXXXXXXXXXXXXXXXXXXXXm.8.G.&.c.e w F.F.G.F.F.F.F.Z.=.X.$ = & < 3 u ! j.}.XXXXXXXXXXXXXXXXXXXXXXXXXXXXXXXXn.x q.XXXXXXXXXX",
"q.c k.XXXXXXXXXXXXXXXXXXXXXXXXc.a.H.N.&.E F.P.P.F.F.F.F.s.@ y j o # L | n./. XXXXXXXXXXXXXXXXXXXXXXXXXXXXXXXXXXX`.I q.XXXXXXXXXX",
"K s XXXXXXXXXXXXXXXXXXXXXXXXXXXX/.3.7.F.Z.F.P.J.F.F.F.B.j z T T C ,.a.a.a.7.;.( h. XXXXXXXXXXXXXXXXXXXXXXXXXXXXXh.U g.XXXXXXXXXX",
"c h.XXXXXXXXXXXXXXXXXXXXXXXXXXXXXXXX`.c.g ,.F.F.F.F.f.Z j T T T =.Z.Z.F.Z.Z.F.J.t.|.XXXXXXXXXXXXXXXXXXXXXXXXXXL.b l  XXXXXXXXXXX",
"9 T.XXXXXXXXXXXXXXXXXXXXXXXXXXXXXX`.5.M 7 $ N Z $.C j n T T T =.f.r.1.6.7.7.a.J.~ `.XXXXXXXXXXXXXXXXXXXXXXXX`.7 c c.XXXXXXXXXXXX",
"k 5.XXXXXXXXXXXXXXXXXXXXXXXXXXn.f 5 < = Q m.! C O.%.Z X.T T ,.B.B.,.V _.`._.L.} ^.XXXXXXXXXXXXXXXXXXXXXXXX'.v H !  XXXXXXXXXXXXX",
"K k h.`.|.XXXXXXXX X}.`.n.Q 2 3 s Q n. X/.( p.,.=.,.z r.8.d.F.F.F.Z.6.n.XXXXXXXXXXXXXXXXXXXXXXXXXXXXXXXX`.b G v |.XXXXXXXXXXXXXX",
"}./ k 9 l K V M v f 7 3 3 u L n. XXXXXm.&.F.F.a.I Y [ ;.H.H.H.G.F.F.F.-./.XXXXXXXXXXXXXXXXXXXXXXXXXXXXm.l F V }.XXXXXXXXXXXXXXXX",
"XXXX'.j.Q u 4 4 u M g ] ^.|.XXXXXXXXXX} J.F.;.5.^.|.XX-.H.H.H.H.G.F.F.F.6.n.XXXXXXXXXXXXXXXXXXXXXXXX..x S / |.XXXXXXXXXXXXXXXXXX",
"XXXXXXXXXXXXXXXXXXXXXXXXXXXXXXXXXXXXXXn.3.[ }.XXXXXXXX4.H.H.H.H.G.F.G.H.H.6.h. XXXXXXXXXXXXXXXXX|.L c c  .XXXXXXXXXXXXXXXXXXXXXX",
"XXXXXXXXXXXXXXXXXXXXXXXXXXXXXXXXXXXXXXXX}.|.XXXXXXXXXX>.U.U.P.J.G.F.F.F.G.G.d._ /.XXXXXXXXXXXXM.4 8 s ^.XXXXXXXXXXXXXXXXXXXXXXXX",
"XXXXXXXXXXXXXXXXXXXXXXXXXXXXXXXXXXXXXXXXXXXXXXXXXXXXXX-.U.U.H.J.J.F.F.F.F.F.F.Z.-.T.XXXXXXXX! < 1 M '.XXXXXXXXXXXXXXXXXXXXXXXXXX",
"XXXXXXXXXXXXXXXXXXXXXXXXXXXXXXXXXXXXXXXXXXXXXXXXXXXXXX>.U.U.P.J.J.G.F.F.F.F.F.F.F.&.'.}.j.2 % < g.XXXXXXXXXXXXXXXXXXXXXXXXXXXXXX",
"XXXXXXXXXXXXXXXXXXXXXXXXXXXXXXXXXXXXXXXXXXXXXXXXXXXXn.-.U.U.U.P.P.P.d.F.F.F.F.F.F.F.= < 1 < M `.XXXXXXXXXXXXXXXXXXXXXXXXXXXXXXXX",
"XXXXXXXXXXXXXXXXXXXXXXXXXXXXXXXXXXXXXXXXXXXXXXXXXXXX) 8.U.U.U.P.P.P.y.G.H.G.F.F.F.F.,.& * j. XXXXXXXXXXXXXXXXXXXXXXXXXXXXXXXXXXX",
"XXXXXXXXXXXXXXXXXXXXXXXXXXXXXXXXXXXXXXXXXXXXXXXXXXXX&.7.U.U.U.U.P.P.8.Z.G.G.F.F.F.F.G.+ m.XXXXXXXXXXXXXXXXXXXXXXXXXXXXXXXXXXXXXX",
"XXXXXXXXXXXXXXXXXXXXXXXXXXXXXXXXXXXXXXXXXXXXXXXXXX^.7.y.P.P.P.P.P.P.a.7.F.F.F.F.G.H.H._ XXXXXXXXXXXXXXXXXXXXXXXXXXXXXXXXXXXXXXXX",
"XXXXXXXXXXXXXXXXXXXXXXXXXXXXXXXXXXXXXXXXXXXXXXXXXXM.a.Z.J.J.J.J.J.J.F.X.F.F.G.H.H.H.F.( XXXXXXXXXXXXXXXXXXXXXXXXXXXXXXXXXXXXXXXX",
"XXXXXXXXXXXXXXXXXXXXXXXXXXXXXXXXXXXXXXXXXXXXXXXXXXM.a.d.Z.J.J.J.J.G.G.p.C G.G.H.H.B.=.Y  XXXXXXXXXXXXXXXXXXXXXXXXXXXXXXXXXXXXXXX",
"XXXXXXXXXXXXXXXXXXXXXXXXXXXXXXXXXXXXXXXXXXXXXXXXXXc.E F.=.G.J.G.G.G.B.=.z z ,.6.,.$.X.y 5.XXXXXXXXXXXXXXXXXXXXXXXXXXXXXXXXXXXXXX",
"XXXXXXXXXXXXXXXXXXXXXXXXXXXXXXXXXXXXXXXXXXXXXXXXXXc.6 B.d.$.B.B.B.a.,.=.%.z ; y z Z T T N |.XXXXXXXXXXXXXXXXXXXXXXXXXXXXXXXXXXXX",
"XXXXXXXXXXXXXXXXXXXXXXXXXXXXXXXXXXXXXXXXXXXXXXXXXXn.z j ,.1.j %.6.,.=.=.;.C u } k.B $.&.$.k.XXXXXXXXXXXXXXXXXXXXXXXXXXXXXXXXXXXX",
"XXXXXXXXXXXXXXXXXXXXXXXXXXXXXXXXXXXXXXXXXXXXXXXXXXM.l m 8 - l p ^ ^ E Y f }  XXXXX/.C =.=.M XXXXXXXXXXXXXXXXXXXXXXXXXXXXXXXXXXXX",
"XXXXXXXXXXXXXXXXXXXXXXXXXXXXXXXXXXXXXXXXXXXXXXXXXX'.i m m z g.XXXX X'.}.XXXXXXXXXXXXV ;.%.T M.XXXXXXXXXXXXXXXXXXXXXXXXXXXXXXXXXX",
"XXXXXXXXXXXXXXXXXXXXXXXXXXXXXXXXXXXXXXXXXXXXXXXXXXXX6 m U =.Q XXXXXXXXXXXXXXXXXXXXXX .=.=.=.) XXXXXXXXXXXXXXXXXXXXXXXXXXXXXXXXXX",
"XXXXXXXXXXXXXXXXXXXXXXXXXXXXXXXXXXXXXXXXXXXXXXXXXXXXg =.r.p.=.^.XXXXXXXXXXXXXXXXXXXXk.$.r.B.6.`.XXXXXXXXXXXXXXXXXXXXXXXXXXXXXXXX",
"XXXXXXXXXXXXXXXXXXXXXXXXXXXXXXXXXXXXXXXXXXXXXXXXXXXX} 1.0.r.r.3.XXXXXXXXXXXXXXXXXXXX'.;.H.H.F.j.XXXXXXXXXXXXXXXXXXXXXXXXXXXXXXXX",
"XXXXXXXXXXXXXXXXXXXXXXXXXXXXXXXXXXXXXXXXXXXXXXXXXXXX/.T 0.p.s.$./.XXXXXXXXXXXXXXXXXX X>.H.H.H.-.|.XXXXXXXXXXXXXXXXXXXXXXXXXXXXXX",
"XXXXXXXXXXXXXXXXXXXXXXXXXXXXXXXXXXXXXXXXXXXXXXXXXXXXXXY s.d.s.s.) XXXXXXXXXXXXXXXXXX X2.H.H.H.N.c.XXXXXXXXXXXXXXXXXXXXXXXXXXXXXX",
"XXXXXXXXXXXXXXXXXXXXXXXXXXXXXXXXXXXXXXXXXXXXXXXXXXXXXX5.r.A.N.u.E '.XXXXXXXXXXXXXXXXXXw.H.H.H.H._ XXXXXXXXXXXXXXXXXXXXXXXXXXXXXX",
"XXXXXXXXXXXXXXXXXXXXXXXXXXXXXXXXXXXXXXXXXXXXXXXXXXXXXX`._ C.u.e.*.j.XXXXXXXXXXXXXXXXXXh.F.P.P.H.a.k.XXXXXXXXXXXXXXXXXXXXXXXXXXXX",
"XXXXXXXXXXXXXXXXXXXXXXXXXXXXXXXXXXXXXXXXXXXXXXXXXXXXXXXX{ e.u.i.N j.XXXXXXXXXXXXXXXXXXn.B.W.Q.W.U.) XXXXXXXXXXXXXXXXXXXXXXXXXXXX",
"XXXXXXXXXXXXXXXXXXXXXXXXXXXXXXXXXXXXXXXXXXXXXXXXXXXXXXXX}.) K u.M /.XXXXXXXXXXXXXXXXXXL.d.E.].].Q.2.}.XXXXXXXXXXXXXXXXXXXXXXXXXX",
"XXXXXXXXXXXXXXXXXXXXXXXXXXXXXXXXXXXXXXXXXXXXXXXXXXXXXXXXXX}.h u j.XXXXXXXXXXXXXXXXXXXX/.x.E.~.].].A.n.XXXXXXXXXXXXXXXXXXXXXXXXXX",
"XXXXXXXXXXXXXXXXXXXXXXXXXXXXXXXXXXXXXXXXXXXXXXXXXXXXXXXXXXXXXX|.XXXXXXXXXXXXXXXXXXXXXX(.t.R.E.E.A.Y...XXXXXXXXXXXXXXXXXXXXXXXXXX",
"XXXXXXXXXXXXXXXXXXXXXXXXXXXXXXXXXXXXXXXXXXXXXXXXXXXXXXXXXXXXXXXXXXXXXXXXXXXXXXXXXXXXXX|.l.t.E.E.4.Y.} XXXXXXXXXXXXXXXXXXXXXXXXXX",
"XXXXXXXXXXXXXXXXXXXXXXXXXXXXXXXXXXXXXXXXXXXXXXXXXXXXXXXXXXXXXXXXXXXXXXXXXXXXXXXXXXXXXXXXh.>.P.P.V.4...XXXXXXXXXXXXXXXXXXXXXXXXXX",
"XXXXXXXXXXXXXXXXXXXXXXXXXXXXXXXXXXXXXXXXXXXXXXXXXXXXXXXXXXXXXXXXXXXXXXXXXXXXXXXXXXXXXXXX`.M >.K.x.u n.XXXXXXXXXXXXXXXXXXXXXXXXXX",
"XXXXXXXXXXXXXXXXXXXXXXXXXXXXXXXXXXXXXXXXXXXXXXXXXXXXXXXXXXXXXXXXXXXXXXXXXXXXXXXXXXXXXXXXXX^.t p u | XXXXXXXXXXXXXXXXXXXXXXXXXXXX",
"XXXXXXXXXXXXXXXXXXXXXXXXXXXXXXXXXXXXXXXXXXXXXXXXXXXXXXXXXXXXXXXXXXXXXXXXXXXXXXXXXXXXXXXXXXXXXX}. XXXXXXXXXXXXXXXXXXXXXXXXXXXXXXX",
"XXXXXXXXXXXXXXXXXXXXXXXXXXXXXXXXXXXXXXXXXXXXXXXXXXXXXXXXXXXXXXXXXXXXXXXXXXXXXXXXXXXXXXXXXXXXXXXXXXXXXXXXXXXXXXXXXXXXXXXXXXXXXXXX"
};
