/* XPM */
static char *_2e4efada1b14451ec8ce08dc3d0aa85JlDgKY2kh9SABeRU[] = {
/* columns rows colors chars-per-pixel */
"64 64 200 2 ",
"   c None",
".  c #333C45",
"X  c #49484E",
"o  c #5D5262",
"O  c #735861",
"+  c #7A696F",
"@  c #77656E",
"#  c #7D6A73",
"$  c #716C73",
"%  c #677077",
"&  c #777677",
"*  c #83646C",
"=  c #836D76",
"-  c #856D78",
";  c #8D6976",
":  c #84747B",
">  c #8B747C",
",  c #847A7E",
"<  c #92737B",
"1  c #6E7B83",
"2  c #777B84",
"3  c #867C81",
"4  c #8B7B82",
"5  c #8B7F88",
"6  c #927D84",
"7  c #997881",
"8  c #977F8D",
"9  c #A77B8A",
"0  c #AA7F90",
"q  c #7E8386",
"w  c #868084",
"e  c #8C8286",
"r  c #8E838A",
"t  c #948287",
"y  c #9A8187",
"u  c #92858D",
"i  c #99838F",
"p  c #948A8E",
"a  c #9D8A8D",
"s  c #958B91",
"d  c #9A8D94",
"f  c #9D8896",
"g  c #8E909C",
"h  c #959493",
"j  c #9C9196",
"k  c #9E9498",
"l  c #AB828C",
"z  c #A18A8F",
"x  c #A7898E",
"c  c #A58C92",
"v  c #AB8D95",
"b  c #A48F9A",
"n  c #AA8C9A",
"m  c #A88194",
"M  c #B48E9A",
"N  c #A59197",
"B  c #AA9396",
"V  c #A1949B",
"C  c #AB949C",
"Z  c #A5999F",
"A  c #AE9A9E",
"S  c #B3929C",
"D  c #BC949E",
"F  c #B79B9E",
"G  c #9F9DA8",
"H  c #A696A1",
"J  c #A69CA1",
"K  c #AA9CA3",
"L  c #AA9EA8",
"P  c #B497A1",
"I  c #BD94A7",
"U  c #B59BA4",
"Y  c #B99BA4",
"T  c #B59EAA",
"R  c #BD9BAB",
"E  c #A4A3A5",
"W  c #ACA2A6",
"Q  c #ADA4A9",
"!  c #A3A4A9",
"~  c #B3A0A5",
"^  c #B4A3AC",
"/  c #BBA4AB",
"(  c #B4A9AE",
")  c #BCAAAE",
"_  c #BBA2A6",
"`  c #AEABB6",
"'  c #B6ABB1",
"]  c #BCADB2",
"[  c #BCA4B1",
"{  c #BDB0B4",
"}  c #BDB2BA",
"|  c #BCBABB",
" . c #B3B2B8",
".. c #C295A4",
"X. c #C29BA5",
"o. c #C495AA",
"O. c #C49CAC",
"+. c #C99CAE",
"@. c #C59EB0",
"#. c #CC9DB2",
"$. c #C0A0A5",
"%. c #C3A5AD",
"&. c #D0A2AF",
"*. c #C3A4B2",
"=. c #CAA3B3",
"-. c #C3ABB3",
";. c #CBABB5",
":. c #CBA6B8",
">. c #C5ADBA",
",. c #CBADB9",
"<. c #D1A6B3",
"1. c #D1AAB4",
"2. c #D6A6BC",
"3. c #D1AEBB",
"4. c #C3B1B5",
"5. c #C9B0B6",
"6. c #C4B3BB",
"7. c #CBB4BC",
"8. c #C3B9BE",
"9. c #CABBBD",
"0. c #D1B0B7",
"q. c #D3B2BC",
"w. c #D9B3BD",
"e. c #D4B9BE",
"r. c #D6ACC0",
"t. c #D8AFC1",
"y. c #CCB7C2",
"u. c #C5BCC2",
"i. c #CBBBC2",
"p. c #D4B6C3",
"a. c #D4BBC3",
"s. c #DABAC5",
"d. c #D5BECA",
"f. c #DBBCC9",
"g. c #DBB5C4",
"h. c #E2B5C5",
"j. c #E3BCC7",
"k. c #E3BDCB",
"l. c #EBBECC",
"z. c #F0BDCE",
"x. c #C2C1C7",
"c. c #CDC3C9",
"v. c #CDC0C4",
"b. c #D2C0C4",
"n. c #D8C1C7",
"m. c #D4C4CB",
"M. c #DCC3CB",
"N. c #DCCACE",
"B. c #D6CACE",
"V. c #CEC9D0",
"C. c #DFC0D0",
"Z. c #D5CAD3",
"A. c #DBCCD4",
"S. c #D0CED9",
"D. c #DDD1D5",
"F. c #DED5D9",
"G. c #E4C3CD",
"H. c #ECC3CE",
"J. c #E2C8CF",
"K. c #E1C1C6",
"L. c #E5C4D3",
"P. c #ECC4D3",
"I. c #E4CAD4",
"U. c #ECCBD4",
"Y. c #E4CDD9",
"T. c #ECCCDA",
"R. c #E9C6DA",
"E. c #F3C5D3",
"W. c #F8C5D6",
"Q. c #F3CAD6",
"!. c #F8CBD6",
"~. c #F2C7D9",
"^. c #FAC7D8",
"/. c #F4CDD9",
"(. c #F9CCD9",
"). c #E4D1D4",
"_. c #E4D2D9",
"`. c #ECD3DA",
"'. c #E6D9DD",
"]. c #EDDADE",
"[. c #ECD1D6",
"{. c #F6D7DE",
"}. c #F3D2DC",
"|. c #F9D2DD",
" X c #F4D9DF",
".X c #EBD6E2",
"XX c #E7DEE3",
"oX c #EADAE3",
"OX c #F7D6E1",
"+X c #F5D3E1",
"@X c #FDD6E2",
"#X c #F4DBE3",
"$X c #FAD9E2",
"%X c #FBDEE6",
"&X c #FDDBE5",
"*X c #FEDEE8",
"=X c #FEE2EA",
"-X c #F2E7F0",
";X c #FFE2F2",
":X c #FEE9F3",
/* pixels */
"                                                                                                                                ",
"                                                                                                                                ",
"                                          N.9.9.                                                                                ",
"                                        _ M.`.).v.                                                                              ",
"                                    6.a.$XU.`.-.                                                                                ",
"                                  / I.}.T.}.Y./                                                                                 ",
"                              7.p./.+X}.R.I./                                                                                   ",
"                            K f.P.P.P.k.I.7.B.                                                                                  ",
"                          n *.t.h.2.r.q.-.^                 M.9.                                                                ",
"                        i R =.+.o.2.O.*.f         N.a.a.M.`.#X].}                                                               ",
"                      i / =.o.#.+.O.Y n   A.7.7.q.s.P.Q.U.`.`.`.~                                                               ",
"                  A.b U *.O.#.I I n n 7.-.oX X{.}.(.(.(.Q.U.J.b.~                                                               ",
"                  b U R @.m n 3.f.q.n Y.#X%X:X$X@X(.!.!././.G.5.A                                                               ",
"                n I @.O.*.Y ;X#XT.T.}.`.#X%X#X&X|.!.Q.E.P.P.P.G.) 6.                                                            ",
"              C *.I o.o.:.n .X#XT.$X}.*X&X=X%X{.}.U.H.E.E.E.E.l.M.7.                                                            ",
"            V T Y R @.M n T oX.X}.|.}.+X{.}.{.{.U.H.H.P.P.P.E.~.P.M.-.                                                          ",
"          6.H K H H ^       7._.$X/.}.}.}./.$X/.E.l.H.s.C @ >.L.E.H.%.                                                          ",
"        A.b H V Z.          i.J.$X&X}.#X+X/.P.Q.H.h.H.-.} S.o d.P./.;.                                                          ",
"        K K L               _.n.+Xs.7.Y.L.+X/.P.P.j.f.6.E 2 . G `.G.5.                                                          ",
"      L H K                 b.`.M.7.( 6.*.k./.P./.k.f.Y.x.% 1 q B.I.a.                                                          ",
"    u.d Z                   ) `.>.oX .s 6.T.P.P.P.R.M.d.-X2 g ` Y.G.7.                      6.6.Q ( ' { 8.                      ",
"    s V                     ) A.y.-X! X f R.P.~.T.T.L.7.:X^ } Z.Y.]           Q j p e 3 , , 4 t 4 e u p d V J L Q               ",
"  ' k B.                    ) Y.d._.V.$ i R.R.P.P.P.Q.q.*.L.R.C.^   7.N : = : : , p E |                       } Z 3             ",
"  p V                         a.I.>.A.u 8 R.R./.Q.H.P.Q.G.=.+.; - + > > 6 /                                       s u.          ",
"8.j m.                        N.n.+XM.[ *.R.T.}.E.H.P.U.e.* 9 0 O = U ,.                                          J 8.          ",
"Q d                               ,.d.I.L.T.}.}.H.!.P.K.c B ..D P ,.q.G.s.7.7.Q                                 m.j c.          ",
"s u.                                  ).b ;.}.G.E.j.H.F a B X...<.P./.P.T.I.I._.c.                              j d             ",
"r                                   | s 6 - v S +.D l x A / D &.j.h.q.q.5.7.n.D.W                             w p               ",
"s u.                            h & q & ^ Y.R S Y <.D $._ F <.E.P.:.S         |                             s L W               ",
"L r m.                  Z.Q w & h E       *.f.;.;.0.v q.q.G.H.E.P.G.a._.                                  k Z k                 ",
"  ( 5 u p J L k k p u , : e L B.        / I.R.f.P A -.%.{./.@X^.E.E.U.]                                 d d Z                   ",
"        Q p , r p k d } XX            6.Y.I.>.y.      -.}././.(.W.E.U.I.9.F.                        8.s j '                     ",
"                                        6.]           5.}.}.(.Q.!.P.Q.}.`.7.n.                    Z j d 8.                      ",
"                                                      4.}.}.@XQ.Q.E.P.G.{.U.a.-.                4 , k                           ",
"                                                      -.{.}.|.Q.E.E.Q.k.U.P.U.G.,.          L 4 : k                             ",
"                                                      -.$X|.Q./.^.E.H.Q.Q.H.E./.L.*.      : - :                                 ",
"                                                    D.5.{.@X/.|.(.(.l./.E.E.z.l.E.P.> > # : C                                   ",
"                                                    ^ e.}.&X@X|.|.|.j.Q.E.^.W.^.E.Q.-.# ,                                       ",
"                                                    / a.}.@X@X}.|./.w.H.(.^.E.l.E.P.I.@                                         ",
"                                                    a.q.|.|./.|.}.{.s.w.E.H.^.E.E.$X`.]                                         ",
"                                                    M.G.Q.!.}.U./.Q.P.../.E.Q././.+XI.)                                         ",
"                                                    n.s.P.Q./.}.}.P.|.j.l Q.|.Q./.U.-.K                                         ",
"                                                    / U.1.U.U.U.U./.H.1.M M =.q.3.-.Y z 7.                                      ",
"                                                    > G.k.%.G.G.G.j.w.O.O.M < y v S Y U B                                       ",
"                                                    c x ;.;.v _ 5.,.%.q.;.A y 4.  A %.%.Y N.                                    ",
"                                                    y P 7 ; c c ) _ / A a )         b ,.-.N                                     ",
"                                                    z c S v a.                      ~ 5.-.K                                     ",
"                                                    6 S Y %.Y                       { -.-.-.)                                   ",
"                                                    k -.s.q.,.                      m.) e.G.q.                                  ",
"                                                      -.7.s.g.;.                      4.`.}.H.                                  ",
"                                                      ^ p.p.k.*.                      ) }.}.!.;.                                ",
"                                                      U M.s.s.d.'                     4.[.U.|.j.                                ",
"                                                        a.I.f.n.Q                     b.}./.(.}.]                               ",
"                                                        ^ I.I.a.(                     b.`.}.(.}.n.                              ",
"                                                        6.y.i.m.J                     N.J.{.@X@X#X                              ",
"                                                          ' K c.k                       n.$X&X*X#X7.                            ",
"                                                            k u                         N.}.&X&X=X                              ",
"                                                                                        i.%X`.%XI.#X                            ",
"                                                                                        m.7.%X`.i.'.                            ",
"                                                                                        u.4.].#XB.'                             ",
"                                                                                          k { '.A.j                             ",
"                                                                                            u r e                               ",
"                                                                                                                                ",
"                                                                                                                                "
};
