/* XPM */
static char *e578eb7797054dd3dd03d1eefdd4e6903eUxgiXvFvjk0yF0[] = {
/* columns rows colors chars-per-pixel */
"64 64 229 2 ",
"   c #5E484C",
".  c #5D4654",
"X  c #5B4A5A",
"o  c #654646",
"O  c #654947",
"+  c #694847",
"@  c #64464B",
"#  c #6A464B",
"$  c #654A4C",
"%  c #6C4B4C",
"&  c #734D47",
"*  c #724E4D",
"=  c #6D514E",
"-  c #74514E",
";  c #7A554E",
":  c #7D584F",
">  c #634651",
",  c #654D53",
"<  c #6C4C52",
"1  c #664D5A",
"2  c #724F51",
"3  c #665454",
"4  c #6D5353",
"5  c #64545B",
"6  c #6C555B",
"7  c #6C5B5D",
"8  c #745252",
"9  c #7A5653",
"0  c #745955",
"q  c #7D5A54",
"w  c #775559",
"e  c #745B5C",
"r  c #7D5B59",
"t  c #574D68",
"y  c #534E75",
"u  c #544D78",
"i  c #5A5775",
"p  c #565279",
"a  c #634D64",
"s  c #6C5D62",
"d  c #66596C",
"f  c #725761",
"g  c #725C63",
"h  c #635879",
"j  c #6E6164",
"k  c #736364",
"l  c #7B6666",
"z  c #73646A",
"x  c #7B666B",
"c  c #746B6C",
"v  c #6B6172",
"b  c #756B74",
"n  c #7A6E74",
"m  c #776978",
"M  c #767377",
"N  c #7A7275",
"B  c #75737A",
"V  c #7B737A",
"C  c #7C797E",
"Z  c #835B4F",
"A  c #835D55",
"S  c #835D59",
"D  c #885E58",
"F  c #846054",
"G  c #896355",
"H  c #8E6957",
"J  c #85615B",
"K  c #8B645C",
"L  c #8E685E",
"P  c #916A5D",
"I  c #98715E",
"U  c #816564",
"Y  c #8B6561",
"T  c #8D6964",
"R  c #8C6D69",
"E  c #956C63",
"W  c #936D64",
"Q  c #936E69",
"!  c #967166",
"~  c #9A7366",
"^  c #95716A",
"/  c #9A746B",
"(  c #9E796C",
")  c #806C78",
"_  c #877477",
"`  c #82747A",
"'  c #9D7A72",
"]  c #97797A",
"[  c #A0776B",
"{  c #A37C6D",
"}  c #A37D73",
"|  c #A87F7D",
" . c #A68173",
".. c #AB8374",
"X. c #AF8977",
"o. c #A2827C",
"O. c #AB8479",
"+. c #AE8A7B",
"@. c #B18A79",
"#. c #B38C7C",
"$. c #B7917D",
"%. c #B9937E",
"&. c #585A87",
"*. c #555A94",
"=. c #615E90",
"-. c #55639E",
";. c #5B649C",
":. c #676787",
">. c #716C8D",
",. c #6E758C",
"<. c #7B7581",
"1. c #7C7C84",
"2. c #78758A",
"3. c #767D8C",
"4. c #7B7D8B",
"5. c #6A6D9C",
"6. c #756E94",
"7. c #6B769A",
"8. c #777896",
"9. c #7A7E94",
"0. c #747D9C",
"q. c #5967AC",
"w. c #4E69B8",
"e. c #5164B6",
"r. c #596BB4",
"t. c #5165BA",
"y. c #556CBD",
"u. c #5C6EBC",
"i. c #5C74B8",
"p. c #686BA3",
"a. c #636CAE",
"s. c #6976A6",
"d. c #6C7CAC",
"f. c #7578A4",
"g. c #727DA4",
"h. c #717BAC",
"j. c #666FB0",
"k. c #6374B4",
"l. c #6B7DB3",
"z. c #667ABA",
"x. c #4D6DC4",
"c. c #466DCE",
"v. c #4A6DCD",
"b. c #526DC3",
"n. c #556CC7",
"m. c #4871CA",
"M. c #4D72CD",
"N. c #5471C4",
"B. c #5C74C4",
"V. c #5274CD",
"C. c #5975CC",
"Z. c #577ACB",
"A. c #5D7ECD",
"S. c #466CD2",
"D. c #4A6DD2",
"F. c #486CD8",
"G. c #506FD7",
"H. c #4D71D2",
"J. c #5275D3",
"K. c #5577D6",
"L. c #557AD4",
"P. c #597ED2",
"I. c #5A7DD4",
"U. c #5A7ED6",
"Y. c #567AD9",
"T. c #5A7ED8",
"R. c #6277C5",
"E. c #627DC3",
"W. c #877686",
"Q. c #817D84",
"!. c #957B81",
"~. c #857B95",
"^. c #7C818B",
"/. c #788094",
"(. c #6E80AC",
"). c #7381A3",
"_. c #7181A8",
"`. c #6981B7",
"'. c #6B81BC",
"]. c #5F82CC",
"[. c #5E82D3",
"{. c #5B80D5",
"}. c #5D82D4",
"|. c #5D82D5",
" X c #5D81D9",
".X c #6482C3",
"XX c #6982C5",
"oX c #6381CA",
"OX c #6082D3",
"+X c #6083D8",
"@X c #99888F",
"#X c #888493",
"$X c #A88983",
"%X c #B38E81",
"&X c #B18E88",
"*X c #B59383",
"=X c #BA9482",
"-X c #BC9885",
";X c #B0978C",
":X c #B89489",
">X c #BC9A8C",
",X c #C19C85",
"<X c #C39C89",
"1X c #C99C89",
"2X c #C49D94",
"3X c #C5A286",
"4X c #C6A18B",
"5X c #CAA48D",
"6X c #CEA98F",
"7X c #C3A194",
"8X c #CBA692",
"9X c #CEA993",
"0X c #C9A598",
"qX c #CCAC9B",
"wX c #D2AD94",
"eX c #D8AC97",
"rX c #D4AF9A",
"tX c #D6B196",
"yX c #D7B299",
"uX c #D9B49A",
"iX c #D0AFA3",
"pX c #D9B6A3",
"aX c #D8B7A7",
"sX c #DCBAA4",
"dX c #DEBCB0",
"fX c #E3C2AA",
"gX c #E3C4B1",
"hX c #E9CAB6",
"jX c #EDD0BE",
/* pixels */
"L.I.}.[.}.}.}.}.[.OX}.I.H.v.D.D.v.M.L.}.[.[.[.[.P.J.H.F.F.c.c.c.H.J.Y. X}.}.}.}.}.}.[.[.}.L.H.D.S.S.c.v.L.}.[.[.[.[.P.J.v.v.D.D.",
"H.L.I.}.}.}.}.}.[.}. XL.J.v.v.v.v.M.L.}.}.OX[.[.P.I.K.D.D.F.F.F.F.H.K.Y.I.I. X}.}.}.[.[.{.L.H.D.v.v.v.M.L.}.}.[.[.[.P.L.J.v.D.D.",
"D.J.L.L.L.I. X}. X+X}.I.L.J.J.V.V.Z.P.}.+X+X+X}.}. XL.M.v.D.D.D.D.D.D.J.K.K.L.I.{.{.}.}.}.I.L.J.J.J.J.L.I. X X}.}.}. XT.L.M.D.D.",
"D.D.H.D.J.K.Y.T.I.I.P.I.I.{.{.[.[.I.I.I.I.T.T.I.I.I.L.V.M.b.b.b.v.v.F.F.D.D.H.J.L.I. X}.}.{.{.I.P.P.I.T.T.I.I. XI.I.T.T.L.J.D.D.",
"S.D.S.c.D.H.J.J.J.J.J.L. X X}.[.}.{.L.J.J.J.V.V.V.V.N.R.k.s.s.s.a.n.G.F.D.v.D.G.J.J.J.J.L.L.I.{.[.[.}.I.L.J.J.J.J.J.J.J.J.L.J.D.",
"S.S.S.S.S.D.D.D.D.v.H.J.I.}.}.[.}.P.V.D.F.c.v.M.x.u.j.f.~.W.W.W.W.p.u.n.v.v.D.D.D.D.D.D.H.J.P.}.}.[.}.I.K.H.D.D.D.D.v.H.H.L.L.H.",
"D.S.S.S.S.S.S.S.S.D.v.J.I.}.}.[.}.P.V.D.S.S.v.y.q.5.W.!.] | | } ] W.5.r.b.D.c.c.c.D.D.D.D.J.L.[.}.}.}.I.J.D.D.D.S.S.c.v.H.I.I.L.",
"H.D.D.D.S.S.S.S.S.F.v.H.Y. X+X}.[.P.J.F.F.x.r.p.6.!.} { ..+.#...O.!.W.6.q.v.S.S.S.F.F.F.D.J.L.P.[.}.}.I.J.F.D.D.D.D.S.M.M.P.}.I.",
"L.H.v.D.v.c.S.S.S.S.v.J.Y. X X}.[.P.J.D.b.q.6.W.] O.@.@.#.*X%.@.#.%X$X] 2.j.n.D.S.F.F.F.D.J.L.}.}.[.[.P.J.D.D.D.D.D.S.v.M.P.}.}.",
"I.L.V.J.H.v.c.S.S.S.D.H.J.I.}.}.[.P.P.C.i.6._ ^ ' O.#.:X>X8X8X>X>X7X2X&X$X~.h.N.v.S.S.c.c.H.J.I.[.[.[.[.L.M.H.D.F.F.D.D.H.P.}.}.",
" X XI.I.I.J.H.D.S.S.D.D.H.J.T.}.[.[.A.E.f.` ! W / } O.:X0XaXiX7X7XiXiX0X:X;X@Xh.b.v.c.c.c.c.M.J.P.[.}.[.P.P.J.H.D.D.D.H.H.P.I.I.",
"L.I. X}.P.L.J.H.D.F.v.D.v.H.Y. X].[.oXh.W.R ! ' %X>X>X>XqXdXaX-X-XrXpXrX5X4X;X#Xf.r.x.v.v.v.v.J.L.}.[.OX}.}.I.J.J.J.J.J.L.[.I.L.",
"M.L.}.}.[.I.I.J.D.D.D.D.v.m.K.[.].oXl.6.x T ( :XiXdXaX0XqXsXpXX.@.8XuXuXeXwX5X$XW.2.5.r.b.n.x.M.L.I.}.}.[.}.}.}.I.I.I.{.{.I.I.H.",
"M.L.}.}.[.}. XL.H.v.D.D.c.c.H.L.A.'.0.) ' *X7XiXgXgXdXqXqXrX9X@.%.5XeXuXeX9X1X#.' _ W.6.p.a.y.v.J.L.I.{.}.[.OX}.[.[.[.[.[.I.L.H.",
"H.L.}.}.[.}. XL.H.v.D.S.c.c.D.C.k.7.` ] qXgXhXhXhXhXfXuX9X8X<X=X,X6XrXwX9X5X<X#. .' ' ] W.8.j.u.b.V.L.I.[.].OX[.[.[.[.[.[.{.L.H.",
"M.L.}.[.[.}.}.I.L.H.D.F.S.v.n.a.>.m $XqXjXjXjXhXgXfXsXuXwX9X4X,X,X6XwX5X3X4X5X:X+. .' / ^ _ 2.p.r.y.V.L.P.A.[.[.[.}.}.}.}.{.L.H.",
"V.L.[.[.[.[.}.}. XJ.H.F.D.b.a.>.n ^ 7XgXhXhXhXfXfXsXyXwXwXtXwX5X4XwX6X,X=X,X5X=XO.' ! Q W R ) m ;.q.y.V.J.Z.L.P.}. X}.}.}.{.L.J.",
"I.I. X X}.}. X XI.L.M.v.y.p.6._ o.%X0XpXpXpXsXsXpXyX6X4X5XwXyXwXwXwX6X%.@.#.%X../ L K J A r w 6 i &.-.x.M.M.M.J.P.P.[.{. XI.I.P.",
"I.I.L.L.Y.L.L.L.L.K.C.u.p.:.W.o.:X<X8X8X9X8X4X<X8XtX5X,X4XwXuXtXtXtXwX<X=X../ Y A : q q q q 8 < 1 t &.e.v.v.v.H.H.J.L.K.K.L.P.P.",
"T.L.H.D.H.H.H.v.V.C.z.5.h f  .=X4X5X<X=X=X#.( H X.wX6X3X4XwXuXuXuXuXtXwX9X} J A * % * 8 q S r 9 % , t *.t.D.S.S.S.S.H.H.H.H.J.P.",
"T.J.D.c.c.F.F.v.y.j.>.v 8 F %.5X4X,XX.{ ( / W F ..wXwX6XwXtXuXuXuXuXuXyXrX .A S 9 * # % 2 w r 9 ; - 6 h q.v.S.S.S.F.S.S.D.v.M.P.",
"T.J.D.D.c.S.D.y.;.h z e q I 5X8X:XX.~ L K K K K ..wXyXtXtXuXuXuXuXuXuXyX9X .K S 9 2 % # < 2 9 q 9 9 e d &.e.v.v.S.S.F.S.S.v.M.I.",
"T.J.D.D.S.v.y.;.h 6 w q ; F %X:XO./ L D D K W ( *XrXuXuXuXuXuXuXuXuXuXyX6XX.W K S 9 $ o # # < 4 = 8 w e d &.e.x.v.F.S.S.c.v.M.L.",
"P.L.H.S.v.b.;.i 5 6 8 9 - : } } E K D D L ! { @.4XrXtXuXtXuXuXuXuXuXuXyX5X$.( L S 9 % $ o o $ $ % 2 8 8 1 t &.e.v.F.S.S.v.D.H.L.",
"P.P.J.M.x.q.h 5 4 8 8 * - q W W G A D K ~ { @.=X5XwXyXuXuXuXuXuXuXuXuXtX5X*X{ L D q 9 - % o o % = 8 2 < , . t *.t.D.S.D.c.F.H.J.",
"}.I.I.Z.i.=.a = 0 8 < % 8 9 A D A G K ~ ..@.=X-X<X8XwXyXuXuXuXuXuXuXyXwX4X#.( L S A S 9 % # # % 4 8 % # # > . t -.V.M.v.S.F.D.v.",
"}.}.[.E.p.h , - 9 8 < % % - q A G P ( ..#.*X=X=X=X<X5X9XwXuXuXuXuXyXwX8X:XO./ Y J A r 8 % # # % $ $ o @ o @   X &.u.V.M.F.F.S.v.",
"}.+XXXl.:.a < % 2 < < % 2 - A F P [ X.#.%.*X=X=X=X=X-X5XwXyXyXuXyXwX5X>X*X' K S S A S 9 8 < % % % % $ @ @ o @ . t ;.N.V.F.D.S.D.",
"P.OX'.5.d > % # # # # % 9 q G E [ ..$.$.%.=X=X=X=X=X=X,X8XwXtXwX9X5X<X*X%XT * ; q A D S q 8 * % 2 2 % @ @ @ @ > X p q.V.D.S.S.D.",
"V.R.d.:.X @ o $ o + # # * q ~ { ..$.%.$.%.%.=X=X*X:X=X=X<X6XwX9X4X-X$.O.} S % * - ; A A q 9 * % < < $ @ @ @ @ @   t -.N.J.D.c.v.",
"V.R.5.d $ $ % % % % % % % 9 } ..$.=X=X=X=X%.$.#.@.#.#.#.:X4X4X,X=X#.} ( T 9 % # % - : A A 9 * $ # # o @ @ @ @ @ @ X &.k.B.N.w.w.",
"b.k.,.j 4 0 r U J S 9 q 9 q / { X.%.=X*X*X#.@. .( ~ ~ / } X.X...{ [ / Q K 9 % + % - q A S q 9 - % # o @ @ @ @ @ $ , v 8.0.7.7.s.",
"y.7.<.z r J Q R T K S S J J K E ..#.*X*X#...{ ~ L G F G P ! / / ~ Q W Q T S * % * - ; q S S q 8 $ o o @ @ @ @ @ @ < g V Q.1.^./.",
"a.3.V U Y Q / Q T K J K T T K E } #.*X%X+.{ ~ H A A A A F K W ! ~ ! Q / Q K q 9 9 * * ; q S r 9 % + o @ @ @ @ @ @ $ 6 x ` Q.1.3.",
"7.<._ R Q / / W K A q J Q Q W E [ ..+...{ E K A Z A A A F F K W ! / / / Q L J S r 8 * * 8 q q 9 - % O o @ @ @ @ @ # < f m <.1.3.",
",.c l Y Q / Q T J 9 ; D Q / / E E E ~ ~ E G A Z Z A A A D F K W ! ! / / ^ W K S q * * * % - 9 q 9 - $ o @ @ @ @ o o @ , s B 1.3.",
"<.s 8 J Q ^ T J q 9 A K (  . .( ! W P L K D A A A A F A D A F L W ^ / / / Q L J A ; - % + * q q A q * # o # @ @ @ @     7 M 1.4.",
"V 7 4 r T T S 9 8 q Y ( O.@.#. ./ W L K F A A A F F F F F A F K L W ^ / ( / Q L J A 9 8 % 2 9 q A q - $ o @ @ @ @ @     7 M 1.4.",
"n 7 4 q J S 8 - 9 J ^  .#.#.+.' T S A A A F F D A F A F F A F F J K W ^ / / ! L J A q 8 2 % * 9 q q 8 % % $ @ o @ @   , 7 B 1.1.",
"N 7 4 9 r 8 * - A Y ^ } +.+.} T r 8 - q A A F A A A A F F F F A A J K W Q / ^ L F q 9 8 % % % * 9 q q 0 4 $ @ o o $ $ , 7 B 1.1.",
"n 7 < 8 9 - - q Y ^ / ( } ( W S 8 % % 9 9 q A S A A D F F F F D D D J K W ^ ^ T A 9 8 8 8 * % * q A S 9 - + o o % < , , s n Q.1.",
"n 7 , % 8 8 8 S Q / / ^ ^ W K A 8 * * 2 8 9 9 9 q A A A A F F D D D D J K Y Y S q - - 8 9 8 - 8 q D S 9 8 * % % 8 8 < , s N 1.4.",
"V 7 $ $ % - 9 J Q / / W Y J J D q q 9 9 * * * & ; q A A F F D A D S S S r 9 8 - - - 8 q S q 9 9 q A D A 9 9 9 8 8 2 < , s N Q.4.",
"V 7 $ o % - q J W Q T Y r q A A A A A q 9 * * - : A A A F F F D D q 9 9 8 8 8 - - ; q q A A q q : ; A S S S 9 8 - * % , s n Q.3.",
"V 7 $ o % 8 q S K S S r 8 8 q D D D D S S q 9 q q q A A F F A A q - * % % 8 9 q q q S A F A A q - * 9 r r q 0 8 - 8 < , s V 1.4.",
"V 7 $ % 8 9 q q 9 8 8 2 % * A K K L L L K S S q 9 9 9 q J A q 9 - - * % % * 0 r S A A F F A A q * % * 8 8 8 8 - 2 8 % , s V #X3.",
"V 7 % - 9 q 9 9 8 % % # % 8 K E ~ ~ ! W Y Y S q 9 8 - 9 r q 8 - * 8 8 % + # % 9 q A A A F F S q < o o $ % 8 8 2 2 2 $ $ 7 M Q.3.",
"V s % - 9 9 8 8 8 < # o $ 0 Y / / / / ^ Q T K q q 8 8 8 8 * % $ % 9 9 % # o % 8 r S D A F K K S 2 o o $ % - 8 8 2 * % , 7 M 1.3.",
"V g = - 9 9 - - 8 2 < $ $ 8 Y / / / / / Q W Y r r w 2 < % % % % * q q 8 % # $ 8 q S D A F K L K 8 $ % 2 8 8 8 8 - 8 4 3 j M 1.3.",
"N l 0 - - - - - 4 8 4 % % 8 T / / / / / Q Y r 8 < , < # @ # < 8 q A A q 2 % % 8 q S F A A D J A = % < 8 8 - - - - - 4 6 c C C /.",
"1._ l 0 8 - - 8 - 8 8 % % 8 Y W W ! W W Y S 8 $ # # > # # # < 9 A A A A 9 8 % % 8 q A D A D A 9 % $ < 2 8 - 8 8 - - 4 k N 1.3.g.",
"/.Q._ l 0 = = - - - % % $ * J K K K K K S S 8 o # @ @ @ @ # % 9 A D D A 9 % $ $ % 9 A D D D A 9 % o % < 2 8 8 8 8 w z N 1.4.0.l.",
").9.1.V l 6 = % % % % o o % r D A A A S S q 8 $ @ @ @ @ # o % 9 A D F A 9 % o o $ 8 A D D D S 9 < o o % % % < < 4 x ` Q.^.0.d.R.",
"`.h.9.4.V z 3 $ $ % $ @ o % 9 q A A A A S q - $ o @ @ @ $ $ % 9 A D F A q - % o $ - q S S S S 9 < o o o $ $ , 3 k V Q.#X9.d.i.V.",
".Xl.g.9.1.b z 7 4 $ $ @ o $ * ; q q q A S q - $ @ @ @ # o $ % 9 A D F D q 0 8 % % % - 9 q q q < < o o O % 4 7 z n C 4.9.0.i.N.c.",
"OX.X`.(.9.3.C N z 6 3 $ O O = 8 0 0 q q F q 8 @ @ @ @ @ @ o % 9 A F F A F A 9 * $ $ % 8 0 w 0 4 % o $ 4 7 z B B 1.3.0.h.z.x.v.S.",
"I.A..X`.g.0.9.4.V b z j 3 3 k e e 3 4 - q r 2 $ @ @ @ @ @ o % 8 q A D A J S q 4 $ < 6 k l x z k 6 6 k z b <.1.4.9.0.d.k.N.v.D.F.",
"T.I.oXoXz.`._.0.8.2.<.V c c N c j 5 3 4 w w < > @ @ > > @ # < 8 9 r r q q 9 8 4 4 7 z N ` C V V c c N C 1.3././.g.l.B.V.v.v.S.F.",
"J.Y.I.OX[.oX'.`.d.g.9.4.1.1.Q.<.B b b z g 1 1 . . . . . . . > , 3 , 1 1 1 , 5 s c b B 1.4.4.1.4.1.1.4.3.9.0._.`.z.E.A.L.H.D.S.S.",
"H.J.L.Y.T.I.OXoX.X'.(._.).).).g.g.0.0.7.:.p p p p p u u u y y y y y y y y y i :.7.0.0.0.).).).).).g.g.g.d.l.'.oXoXOX}.T.L.H.S.S.",
"H.H.H.H.H.L.T.}.[.].oX.X.X.X.XXXXXXXXXE.z.z.z.R.R.B.u.y.t.t.t.t.e.e.t.t.e.e.r.i.E.E..X.XXXXXXXXXXX.X.X.X].].[.}.}.[.}.T.Y.H.S.S.",
"c.c.S.S.D.H.Y.L.L.L.L.I.[.[.[.OXOX}.I.L.L.I.I.L.L.L.J.J.V.v.D.D.F.D.D.D.v.v.D.J.J.L.L.L.L.P.}.}.}.}.}.{.I.L.L.L.L.L.L.K.K.J.H.D.",
"S.S.S.S.S.D.H.H.D.D.H.J.P.[.[.}.}. XI.J.H.H.H.D.H.H.J.K.J.M.M.F.F.F.S.D.D.D.D.D.D.D.H.H.M.J.I.}.[.}.}.I.K.H.H.H.H.D.H.H.H.Y.J.H.",
"S.S.S.S.S.S.S.S.c.c.v.H.P.}.}.}. XT.J.D.v.D.D.D.D.v.J.L.I.L.H.D.F.F.D.D.D.D.S.S.D.F.F.S.v.V.P.[.[.[.}.I.J.F.D.D.F.D.S.D.H.I.I.L."
};
